%TF.GenerationSoftware,KiCad,Pcbnew,7.0.11*%
%TF.CreationDate,2024-10-30T13:42:53+11:00*%
%TF.ProjectId,iaq_device,6961715f-6465-4766-9963-652e6b696361,rev?*%
%TF.SameCoordinates,Original*%
%TF.FileFunction,Legend,Bot*%
%TF.FilePolarity,Positive*%
%FSLAX46Y46*%
G04 Gerber Fmt 4.6, Leading zero omitted, Abs format (unit mm)*
G04 Created by KiCad (PCBNEW 7.0.11) date 2024-10-30 13:42:53*
%MOMM*%
%LPD*%
G01*
G04 APERTURE LIST*
%ADD10C,0.150000*%
%ADD11C,0.200000*%
%ADD12C,0.120000*%
%ADD13C,1.000000*%
G04 APERTURE END LIST*
D10*
X146838200Y-79319285D02*
X146885819Y-79176428D01*
X146885819Y-79176428D02*
X146885819Y-78938333D01*
X146885819Y-78938333D02*
X146838200Y-78843095D01*
X146838200Y-78843095D02*
X146790580Y-78795476D01*
X146790580Y-78795476D02*
X146695342Y-78747857D01*
X146695342Y-78747857D02*
X146600104Y-78747857D01*
X146600104Y-78747857D02*
X146504866Y-78795476D01*
X146504866Y-78795476D02*
X146457247Y-78843095D01*
X146457247Y-78843095D02*
X146409628Y-78938333D01*
X146409628Y-78938333D02*
X146362009Y-79128809D01*
X146362009Y-79128809D02*
X146314390Y-79224047D01*
X146314390Y-79224047D02*
X146266771Y-79271666D01*
X146266771Y-79271666D02*
X146171533Y-79319285D01*
X146171533Y-79319285D02*
X146076295Y-79319285D01*
X146076295Y-79319285D02*
X145981057Y-79271666D01*
X145981057Y-79271666D02*
X145933438Y-79224047D01*
X145933438Y-79224047D02*
X145885819Y-79128809D01*
X145885819Y-79128809D02*
X145885819Y-78890714D01*
X145885819Y-78890714D02*
X145933438Y-78747857D01*
X146885819Y-78319285D02*
X145885819Y-78319285D01*
X145885819Y-78319285D02*
X145885819Y-78081190D01*
X145885819Y-78081190D02*
X145933438Y-77938333D01*
X145933438Y-77938333D02*
X146028676Y-77843095D01*
X146028676Y-77843095D02*
X146123914Y-77795476D01*
X146123914Y-77795476D02*
X146314390Y-77747857D01*
X146314390Y-77747857D02*
X146457247Y-77747857D01*
X146457247Y-77747857D02*
X146647723Y-77795476D01*
X146647723Y-77795476D02*
X146742961Y-77843095D01*
X146742961Y-77843095D02*
X146838200Y-77938333D01*
X146838200Y-77938333D02*
X146885819Y-78081190D01*
X146885819Y-78081190D02*
X146885819Y-78319285D01*
X146600104Y-77366904D02*
X146600104Y-76890714D01*
X146885819Y-77462142D02*
X145885819Y-77128809D01*
X145885819Y-77128809D02*
X146885819Y-76795476D01*
X173672332Y-83909819D02*
X173338999Y-84909819D01*
X173338999Y-84909819D02*
X173005666Y-83909819D01*
X172100904Y-84814580D02*
X172148523Y-84862200D01*
X172148523Y-84862200D02*
X172291380Y-84909819D01*
X172291380Y-84909819D02*
X172386618Y-84909819D01*
X172386618Y-84909819D02*
X172529475Y-84862200D01*
X172529475Y-84862200D02*
X172624713Y-84766961D01*
X172624713Y-84766961D02*
X172672332Y-84671723D01*
X172672332Y-84671723D02*
X172719951Y-84481247D01*
X172719951Y-84481247D02*
X172719951Y-84338390D01*
X172719951Y-84338390D02*
X172672332Y-84147914D01*
X172672332Y-84147914D02*
X172624713Y-84052676D01*
X172624713Y-84052676D02*
X172529475Y-83957438D01*
X172529475Y-83957438D02*
X172386618Y-83909819D01*
X172386618Y-83909819D02*
X172291380Y-83909819D01*
X172291380Y-83909819D02*
X172148523Y-83957438D01*
X172148523Y-83957438D02*
X172100904Y-84005057D01*
X171100904Y-84814580D02*
X171148523Y-84862200D01*
X171148523Y-84862200D02*
X171291380Y-84909819D01*
X171291380Y-84909819D02*
X171386618Y-84909819D01*
X171386618Y-84909819D02*
X171529475Y-84862200D01*
X171529475Y-84862200D02*
X171624713Y-84766961D01*
X171624713Y-84766961D02*
X171672332Y-84671723D01*
X171672332Y-84671723D02*
X171719951Y-84481247D01*
X171719951Y-84481247D02*
X171719951Y-84338390D01*
X171719951Y-84338390D02*
X171672332Y-84147914D01*
X171672332Y-84147914D02*
X171624713Y-84052676D01*
X171624713Y-84052676D02*
X171529475Y-83957438D01*
X171529475Y-83957438D02*
X171386618Y-83909819D01*
X171386618Y-83909819D02*
X171291380Y-83909819D01*
X171291380Y-83909819D02*
X171148523Y-83957438D01*
X171148523Y-83957438D02*
X171100904Y-84005057D01*
D11*
X154123528Y-84074142D02*
X155337814Y-84074142D01*
X155337814Y-84074142D02*
X155480671Y-84145571D01*
X155480671Y-84145571D02*
X155552100Y-84217000D01*
X155552100Y-84217000D02*
X155623528Y-84359857D01*
X155623528Y-84359857D02*
X155623528Y-84645571D01*
X155623528Y-84645571D02*
X155552100Y-84788428D01*
X155552100Y-84788428D02*
X155480671Y-84859857D01*
X155480671Y-84859857D02*
X155337814Y-84931285D01*
X155337814Y-84931285D02*
X154123528Y-84931285D01*
X154123528Y-86359857D02*
X154123528Y-85645571D01*
X154123528Y-85645571D02*
X154837814Y-85574143D01*
X154837814Y-85574143D02*
X154766385Y-85645571D01*
X154766385Y-85645571D02*
X154694957Y-85788429D01*
X154694957Y-85788429D02*
X154694957Y-86145571D01*
X154694957Y-86145571D02*
X154766385Y-86288429D01*
X154766385Y-86288429D02*
X154837814Y-86359857D01*
X154837814Y-86359857D02*
X154980671Y-86431286D01*
X154980671Y-86431286D02*
X155337814Y-86431286D01*
X155337814Y-86431286D02*
X155480671Y-86359857D01*
X155480671Y-86359857D02*
X155552100Y-86288429D01*
X155552100Y-86288429D02*
X155623528Y-86145571D01*
X155623528Y-86145571D02*
X155623528Y-85788429D01*
X155623528Y-85788429D02*
X155552100Y-85645571D01*
X155552100Y-85645571D02*
X155480671Y-85574143D01*
D10*
X166967819Y-82288191D02*
X167967819Y-82621524D01*
X167967819Y-82621524D02*
X166967819Y-82954857D01*
X167967819Y-83288191D02*
X167301152Y-83288191D01*
X166967819Y-83288191D02*
X167015438Y-83240572D01*
X167015438Y-83240572D02*
X167063057Y-83288191D01*
X167063057Y-83288191D02*
X167015438Y-83335810D01*
X167015438Y-83335810D02*
X166967819Y-83288191D01*
X166967819Y-83288191D02*
X167063057Y-83288191D01*
X167301152Y-83764381D02*
X167967819Y-83764381D01*
X167396390Y-83764381D02*
X167348771Y-83812000D01*
X167348771Y-83812000D02*
X167301152Y-83907238D01*
X167301152Y-83907238D02*
X167301152Y-84050095D01*
X167301152Y-84050095D02*
X167348771Y-84145333D01*
X167348771Y-84145333D02*
X167444009Y-84192952D01*
X167444009Y-84192952D02*
X167967819Y-84192952D01*
X165300819Y-107402333D02*
X164824628Y-107069000D01*
X165300819Y-106830905D02*
X164300819Y-106830905D01*
X164300819Y-106830905D02*
X164300819Y-107211857D01*
X164300819Y-107211857D02*
X164348438Y-107307095D01*
X164348438Y-107307095D02*
X164396057Y-107354714D01*
X164396057Y-107354714D02*
X164491295Y-107402333D01*
X164491295Y-107402333D02*
X164634152Y-107402333D01*
X164634152Y-107402333D02*
X164729390Y-107354714D01*
X164729390Y-107354714D02*
X164777009Y-107307095D01*
X164777009Y-107307095D02*
X164824628Y-107211857D01*
X164824628Y-107211857D02*
X164824628Y-106830905D01*
X164300819Y-107735667D02*
X165300819Y-108402333D01*
X164300819Y-108402333D02*
X165300819Y-107735667D01*
D11*
X157909528Y-84161857D02*
X156409528Y-84161857D01*
X156409528Y-84161857D02*
X157480957Y-84661857D01*
X157480957Y-84661857D02*
X156409528Y-85161857D01*
X156409528Y-85161857D02*
X157909528Y-85161857D01*
X157909528Y-85876143D02*
X156409528Y-85876143D01*
X157123814Y-85876143D02*
X157123814Y-86733286D01*
X157909528Y-86733286D02*
X156409528Y-86733286D01*
X157338100Y-87447572D02*
X157338100Y-88590430D01*
X156409528Y-89161858D02*
X156409528Y-90161858D01*
X156409528Y-90161858D02*
X157909528Y-89161858D01*
X157909528Y-89161858D02*
X157909528Y-90161858D01*
X157909528Y-91519001D02*
X157909528Y-90661858D01*
X157909528Y-91090429D02*
X156409528Y-91090429D01*
X156409528Y-91090429D02*
X156623814Y-90947572D01*
X156623814Y-90947572D02*
X156766671Y-90804715D01*
X156766671Y-90804715D02*
X156838100Y-90661858D01*
X157909528Y-92233286D02*
X157909528Y-92519000D01*
X157909528Y-92519000D02*
X157838100Y-92661857D01*
X157838100Y-92661857D02*
X157766671Y-92733286D01*
X157766671Y-92733286D02*
X157552385Y-92876143D01*
X157552385Y-92876143D02*
X157266671Y-92947572D01*
X157266671Y-92947572D02*
X156695242Y-92947572D01*
X156695242Y-92947572D02*
X156552385Y-92876143D01*
X156552385Y-92876143D02*
X156480957Y-92804715D01*
X156480957Y-92804715D02*
X156409528Y-92661857D01*
X156409528Y-92661857D02*
X156409528Y-92376143D01*
X156409528Y-92376143D02*
X156480957Y-92233286D01*
X156480957Y-92233286D02*
X156552385Y-92161857D01*
X156552385Y-92161857D02*
X156695242Y-92090429D01*
X156695242Y-92090429D02*
X157052385Y-92090429D01*
X157052385Y-92090429D02*
X157195242Y-92161857D01*
X157195242Y-92161857D02*
X157266671Y-92233286D01*
X157266671Y-92233286D02*
X157338100Y-92376143D01*
X157338100Y-92376143D02*
X157338100Y-92661857D01*
X157338100Y-92661857D02*
X157266671Y-92804715D01*
X157266671Y-92804715D02*
X157195242Y-92876143D01*
X157195242Y-92876143D02*
X157052385Y-92947572D01*
D10*
X164348438Y-82804095D02*
X164300819Y-82708857D01*
X164300819Y-82708857D02*
X164300819Y-82566000D01*
X164300819Y-82566000D02*
X164348438Y-82423143D01*
X164348438Y-82423143D02*
X164443676Y-82327905D01*
X164443676Y-82327905D02*
X164538914Y-82280286D01*
X164538914Y-82280286D02*
X164729390Y-82232667D01*
X164729390Y-82232667D02*
X164872247Y-82232667D01*
X164872247Y-82232667D02*
X165062723Y-82280286D01*
X165062723Y-82280286D02*
X165157961Y-82327905D01*
X165157961Y-82327905D02*
X165253200Y-82423143D01*
X165253200Y-82423143D02*
X165300819Y-82566000D01*
X165300819Y-82566000D02*
X165300819Y-82661238D01*
X165300819Y-82661238D02*
X165253200Y-82804095D01*
X165253200Y-82804095D02*
X165205580Y-82851714D01*
X165205580Y-82851714D02*
X164872247Y-82851714D01*
X164872247Y-82851714D02*
X164872247Y-82661238D01*
X165300819Y-83280286D02*
X164300819Y-83280286D01*
X164300819Y-83280286D02*
X165300819Y-83851714D01*
X165300819Y-83851714D02*
X164300819Y-83851714D01*
X165300819Y-84327905D02*
X164300819Y-84327905D01*
X164300819Y-84327905D02*
X164300819Y-84566000D01*
X164300819Y-84566000D02*
X164348438Y-84708857D01*
X164348438Y-84708857D02*
X164443676Y-84804095D01*
X164443676Y-84804095D02*
X164538914Y-84851714D01*
X164538914Y-84851714D02*
X164729390Y-84899333D01*
X164729390Y-84899333D02*
X164872247Y-84899333D01*
X164872247Y-84899333D02*
X165062723Y-84851714D01*
X165062723Y-84851714D02*
X165157961Y-84804095D01*
X165157961Y-84804095D02*
X165253200Y-84708857D01*
X165253200Y-84708857D02*
X165300819Y-84566000D01*
X165300819Y-84566000D02*
X165300819Y-84327905D01*
X161760819Y-106807095D02*
X161760819Y-107378523D01*
X162760819Y-107092809D02*
X161760819Y-107092809D01*
X161760819Y-107616619D02*
X162760819Y-108283285D01*
X161760819Y-108283285D02*
X162760819Y-107616619D01*
X157585580Y-107045190D02*
X157633200Y-106997571D01*
X157633200Y-106997571D02*
X157680819Y-106854714D01*
X157680819Y-106854714D02*
X157680819Y-106759476D01*
X157680819Y-106759476D02*
X157633200Y-106616619D01*
X157633200Y-106616619D02*
X157537961Y-106521381D01*
X157537961Y-106521381D02*
X157442723Y-106473762D01*
X157442723Y-106473762D02*
X157252247Y-106426143D01*
X157252247Y-106426143D02*
X157109390Y-106426143D01*
X157109390Y-106426143D02*
X156918914Y-106473762D01*
X156918914Y-106473762D02*
X156823676Y-106521381D01*
X156823676Y-106521381D02*
X156728438Y-106616619D01*
X156728438Y-106616619D02*
X156680819Y-106759476D01*
X156680819Y-106759476D02*
X156680819Y-106854714D01*
X156680819Y-106854714D02*
X156728438Y-106997571D01*
X156728438Y-106997571D02*
X156776057Y-107045190D01*
X157395104Y-107426143D02*
X157395104Y-107902333D01*
X157680819Y-107330905D02*
X156680819Y-107664238D01*
X156680819Y-107664238D02*
X157680819Y-107997571D01*
X157680819Y-108807095D02*
X157680819Y-108330905D01*
X157680819Y-108330905D02*
X156680819Y-108330905D01*
D11*
X136674284Y-96695528D02*
X136674284Y-95195528D01*
X136674284Y-95195528D02*
X136102855Y-95195528D01*
X136102855Y-95195528D02*
X135959998Y-95266957D01*
X135959998Y-95266957D02*
X135888569Y-95338385D01*
X135888569Y-95338385D02*
X135817141Y-95481242D01*
X135817141Y-95481242D02*
X135817141Y-95695528D01*
X135817141Y-95695528D02*
X135888569Y-95838385D01*
X135888569Y-95838385D02*
X135959998Y-95909814D01*
X135959998Y-95909814D02*
X136102855Y-95981242D01*
X136102855Y-95981242D02*
X136674284Y-95981242D01*
X135174284Y-96695528D02*
X135174284Y-95195528D01*
X135174284Y-95195528D02*
X134674284Y-96266957D01*
X134674284Y-96266957D02*
X134174284Y-95195528D01*
X134174284Y-95195528D02*
X134174284Y-96695528D01*
X133531426Y-96624100D02*
X133317141Y-96695528D01*
X133317141Y-96695528D02*
X132959998Y-96695528D01*
X132959998Y-96695528D02*
X132817141Y-96624100D01*
X132817141Y-96624100D02*
X132745712Y-96552671D01*
X132745712Y-96552671D02*
X132674283Y-96409814D01*
X132674283Y-96409814D02*
X132674283Y-96266957D01*
X132674283Y-96266957D02*
X132745712Y-96124100D01*
X132745712Y-96124100D02*
X132817141Y-96052671D01*
X132817141Y-96052671D02*
X132959998Y-95981242D01*
X132959998Y-95981242D02*
X133245712Y-95909814D01*
X133245712Y-95909814D02*
X133388569Y-95838385D01*
X133388569Y-95838385D02*
X133459998Y-95766957D01*
X133459998Y-95766957D02*
X133531426Y-95624100D01*
X133531426Y-95624100D02*
X133531426Y-95481242D01*
X133531426Y-95481242D02*
X133459998Y-95338385D01*
X133459998Y-95338385D02*
X133388569Y-95266957D01*
X133388569Y-95266957D02*
X133245712Y-95195528D01*
X133245712Y-95195528D02*
X132888569Y-95195528D01*
X132888569Y-95195528D02*
X132674283Y-95266957D01*
X132174284Y-95195528D02*
X131174284Y-95195528D01*
X131174284Y-95195528D02*
X131817141Y-96695528D01*
X130317141Y-95195528D02*
X130174284Y-95195528D01*
X130174284Y-95195528D02*
X130031427Y-95266957D01*
X130031427Y-95266957D02*
X129959999Y-95338385D01*
X129959999Y-95338385D02*
X129888570Y-95481242D01*
X129888570Y-95481242D02*
X129817141Y-95766957D01*
X129817141Y-95766957D02*
X129817141Y-96124100D01*
X129817141Y-96124100D02*
X129888570Y-96409814D01*
X129888570Y-96409814D02*
X129959999Y-96552671D01*
X129959999Y-96552671D02*
X130031427Y-96624100D01*
X130031427Y-96624100D02*
X130174284Y-96695528D01*
X130174284Y-96695528D02*
X130317141Y-96695528D01*
X130317141Y-96695528D02*
X130459999Y-96624100D01*
X130459999Y-96624100D02*
X130531427Y-96552671D01*
X130531427Y-96552671D02*
X130602856Y-96409814D01*
X130602856Y-96409814D02*
X130674284Y-96124100D01*
X130674284Y-96124100D02*
X130674284Y-95766957D01*
X130674284Y-95766957D02*
X130602856Y-95481242D01*
X130602856Y-95481242D02*
X130531427Y-95338385D01*
X130531427Y-95338385D02*
X130459999Y-95266957D01*
X130459999Y-95266957D02*
X130317141Y-95195528D01*
X128888570Y-95195528D02*
X128745713Y-95195528D01*
X128745713Y-95195528D02*
X128602856Y-95266957D01*
X128602856Y-95266957D02*
X128531428Y-95338385D01*
X128531428Y-95338385D02*
X128459999Y-95481242D01*
X128459999Y-95481242D02*
X128388570Y-95766957D01*
X128388570Y-95766957D02*
X128388570Y-96124100D01*
X128388570Y-96124100D02*
X128459999Y-96409814D01*
X128459999Y-96409814D02*
X128531428Y-96552671D01*
X128531428Y-96552671D02*
X128602856Y-96624100D01*
X128602856Y-96624100D02*
X128745713Y-96695528D01*
X128745713Y-96695528D02*
X128888570Y-96695528D01*
X128888570Y-96695528D02*
X129031428Y-96624100D01*
X129031428Y-96624100D02*
X129102856Y-96552671D01*
X129102856Y-96552671D02*
X129174285Y-96409814D01*
X129174285Y-96409814D02*
X129245713Y-96124100D01*
X129245713Y-96124100D02*
X129245713Y-95766957D01*
X129245713Y-95766957D02*
X129174285Y-95481242D01*
X129174285Y-95481242D02*
X129102856Y-95338385D01*
X129102856Y-95338385D02*
X129031428Y-95266957D01*
X129031428Y-95266957D02*
X128888570Y-95195528D01*
X127888571Y-95195528D02*
X126959999Y-95195528D01*
X126959999Y-95195528D02*
X127459999Y-95766957D01*
X127459999Y-95766957D02*
X127245714Y-95766957D01*
X127245714Y-95766957D02*
X127102857Y-95838385D01*
X127102857Y-95838385D02*
X127031428Y-95909814D01*
X127031428Y-95909814D02*
X126959999Y-96052671D01*
X126959999Y-96052671D02*
X126959999Y-96409814D01*
X126959999Y-96409814D02*
X127031428Y-96552671D01*
X127031428Y-96552671D02*
X127102857Y-96624100D01*
X127102857Y-96624100D02*
X127245714Y-96695528D01*
X127245714Y-96695528D02*
X127674285Y-96695528D01*
X127674285Y-96695528D02*
X127817142Y-96624100D01*
X127817142Y-96624100D02*
X127888571Y-96552671D01*
X125174286Y-96695528D02*
X125174286Y-95195528D01*
X125174286Y-95195528D02*
X124817143Y-95195528D01*
X124817143Y-95195528D02*
X124602857Y-95266957D01*
X124602857Y-95266957D02*
X124460000Y-95409814D01*
X124460000Y-95409814D02*
X124388571Y-95552671D01*
X124388571Y-95552671D02*
X124317143Y-95838385D01*
X124317143Y-95838385D02*
X124317143Y-96052671D01*
X124317143Y-96052671D02*
X124388571Y-96338385D01*
X124388571Y-96338385D02*
X124460000Y-96481242D01*
X124460000Y-96481242D02*
X124602857Y-96624100D01*
X124602857Y-96624100D02*
X124817143Y-96695528D01*
X124817143Y-96695528D02*
X125174286Y-96695528D01*
X123031429Y-95695528D02*
X123031429Y-96695528D01*
X123674286Y-95695528D02*
X123674286Y-96481242D01*
X123674286Y-96481242D02*
X123602857Y-96624100D01*
X123602857Y-96624100D02*
X123460000Y-96695528D01*
X123460000Y-96695528D02*
X123245714Y-96695528D01*
X123245714Y-96695528D02*
X123102857Y-96624100D01*
X123102857Y-96624100D02*
X123031429Y-96552671D01*
X122388571Y-96624100D02*
X122245714Y-96695528D01*
X122245714Y-96695528D02*
X121960000Y-96695528D01*
X121960000Y-96695528D02*
X121817143Y-96624100D01*
X121817143Y-96624100D02*
X121745714Y-96481242D01*
X121745714Y-96481242D02*
X121745714Y-96409814D01*
X121745714Y-96409814D02*
X121817143Y-96266957D01*
X121817143Y-96266957D02*
X121960000Y-96195528D01*
X121960000Y-96195528D02*
X122174286Y-96195528D01*
X122174286Y-96195528D02*
X122317143Y-96124100D01*
X122317143Y-96124100D02*
X122388571Y-95981242D01*
X122388571Y-95981242D02*
X122388571Y-95909814D01*
X122388571Y-95909814D02*
X122317143Y-95766957D01*
X122317143Y-95766957D02*
X122174286Y-95695528D01*
X122174286Y-95695528D02*
X121960000Y-95695528D01*
X121960000Y-95695528D02*
X121817143Y-95766957D01*
X121317142Y-95695528D02*
X120745714Y-95695528D01*
X121102857Y-95195528D02*
X121102857Y-96481242D01*
X121102857Y-96481242D02*
X121031428Y-96624100D01*
X121031428Y-96624100D02*
X120888571Y-96695528D01*
X120888571Y-96695528D02*
X120745714Y-96695528D01*
X119174285Y-96624100D02*
X118960000Y-96695528D01*
X118960000Y-96695528D02*
X118602857Y-96695528D01*
X118602857Y-96695528D02*
X118460000Y-96624100D01*
X118460000Y-96624100D02*
X118388571Y-96552671D01*
X118388571Y-96552671D02*
X118317142Y-96409814D01*
X118317142Y-96409814D02*
X118317142Y-96266957D01*
X118317142Y-96266957D02*
X118388571Y-96124100D01*
X118388571Y-96124100D02*
X118460000Y-96052671D01*
X118460000Y-96052671D02*
X118602857Y-95981242D01*
X118602857Y-95981242D02*
X118888571Y-95909814D01*
X118888571Y-95909814D02*
X119031428Y-95838385D01*
X119031428Y-95838385D02*
X119102857Y-95766957D01*
X119102857Y-95766957D02*
X119174285Y-95624100D01*
X119174285Y-95624100D02*
X119174285Y-95481242D01*
X119174285Y-95481242D02*
X119102857Y-95338385D01*
X119102857Y-95338385D02*
X119031428Y-95266957D01*
X119031428Y-95266957D02*
X118888571Y-95195528D01*
X118888571Y-95195528D02*
X118531428Y-95195528D01*
X118531428Y-95195528D02*
X118317142Y-95266957D01*
X117102857Y-96624100D02*
X117245714Y-96695528D01*
X117245714Y-96695528D02*
X117531429Y-96695528D01*
X117531429Y-96695528D02*
X117674286Y-96624100D01*
X117674286Y-96624100D02*
X117745714Y-96481242D01*
X117745714Y-96481242D02*
X117745714Y-95909814D01*
X117745714Y-95909814D02*
X117674286Y-95766957D01*
X117674286Y-95766957D02*
X117531429Y-95695528D01*
X117531429Y-95695528D02*
X117245714Y-95695528D01*
X117245714Y-95695528D02*
X117102857Y-95766957D01*
X117102857Y-95766957D02*
X117031429Y-95909814D01*
X117031429Y-95909814D02*
X117031429Y-96052671D01*
X117031429Y-96052671D02*
X117745714Y-96195528D01*
X116388572Y-95695528D02*
X116388572Y-96695528D01*
X116388572Y-95838385D02*
X116317143Y-95766957D01*
X116317143Y-95766957D02*
X116174286Y-95695528D01*
X116174286Y-95695528D02*
X115960000Y-95695528D01*
X115960000Y-95695528D02*
X115817143Y-95766957D01*
X115817143Y-95766957D02*
X115745715Y-95909814D01*
X115745715Y-95909814D02*
X115745715Y-96695528D01*
X115102857Y-96624100D02*
X114960000Y-96695528D01*
X114960000Y-96695528D02*
X114674286Y-96695528D01*
X114674286Y-96695528D02*
X114531429Y-96624100D01*
X114531429Y-96624100D02*
X114460000Y-96481242D01*
X114460000Y-96481242D02*
X114460000Y-96409814D01*
X114460000Y-96409814D02*
X114531429Y-96266957D01*
X114531429Y-96266957D02*
X114674286Y-96195528D01*
X114674286Y-96195528D02*
X114888572Y-96195528D01*
X114888572Y-96195528D02*
X115031429Y-96124100D01*
X115031429Y-96124100D02*
X115102857Y-95981242D01*
X115102857Y-95981242D02*
X115102857Y-95909814D01*
X115102857Y-95909814D02*
X115031429Y-95766957D01*
X115031429Y-95766957D02*
X114888572Y-95695528D01*
X114888572Y-95695528D02*
X114674286Y-95695528D01*
X114674286Y-95695528D02*
X114531429Y-95766957D01*
X113602857Y-96695528D02*
X113745714Y-96624100D01*
X113745714Y-96624100D02*
X113817143Y-96552671D01*
X113817143Y-96552671D02*
X113888571Y-96409814D01*
X113888571Y-96409814D02*
X113888571Y-95981242D01*
X113888571Y-95981242D02*
X113817143Y-95838385D01*
X113817143Y-95838385D02*
X113745714Y-95766957D01*
X113745714Y-95766957D02*
X113602857Y-95695528D01*
X113602857Y-95695528D02*
X113388571Y-95695528D01*
X113388571Y-95695528D02*
X113245714Y-95766957D01*
X113245714Y-95766957D02*
X113174286Y-95838385D01*
X113174286Y-95838385D02*
X113102857Y-95981242D01*
X113102857Y-95981242D02*
X113102857Y-96409814D01*
X113102857Y-96409814D02*
X113174286Y-96552671D01*
X113174286Y-96552671D02*
X113245714Y-96624100D01*
X113245714Y-96624100D02*
X113388571Y-96695528D01*
X113388571Y-96695528D02*
X113602857Y-96695528D01*
X112460000Y-96695528D02*
X112460000Y-95695528D01*
X112460000Y-95981242D02*
X112388571Y-95838385D01*
X112388571Y-95838385D02*
X112317143Y-95766957D01*
X112317143Y-95766957D02*
X112174285Y-95695528D01*
X112174285Y-95695528D02*
X112031428Y-95695528D01*
D10*
X143986285Y-109674819D02*
X144557713Y-109674819D01*
X144271999Y-109674819D02*
X144271999Y-108674819D01*
X144271999Y-108674819D02*
X144367237Y-108817676D01*
X144367237Y-108817676D02*
X144462475Y-108912914D01*
X144462475Y-108912914D02*
X144557713Y-108960533D01*
D12*
X155956000Y-111379000D02*
X155956000Y-108839000D01*
X168656000Y-111379000D02*
X155956000Y-111379000D01*
X155956000Y-108839000D02*
X155956000Y-107569000D01*
X168656000Y-108839000D02*
X168656000Y-111379000D01*
X153416000Y-107569000D02*
X153416000Y-83439000D01*
X155956000Y-107569000D02*
X153416000Y-107569000D01*
X168656000Y-107569000D02*
X168656000Y-108839000D01*
X171196000Y-107569000D02*
X168656000Y-107569000D01*
X153416000Y-83439000D02*
X158496000Y-83439000D01*
X158496000Y-83439000D02*
X158496000Y-82169000D01*
X168656000Y-83439000D02*
X171196000Y-83439000D01*
X171196000Y-83439000D02*
X171196000Y-107569000D01*
X168656000Y-82169000D02*
X168656000Y-83439000D01*
X168656000Y-82169000D02*
X168656000Y-78994000D01*
X158496000Y-78994000D02*
X158496000Y-82169000D01*
X168656000Y-78994000D02*
X158496000Y-78994000D01*
X100330000Y-76962000D02*
X100330000Y-115062000D01*
X100330000Y-115062000D02*
X148590000Y-115062000D01*
X148590000Y-76962000D02*
X100330000Y-76962000D01*
X148590000Y-115062000D02*
X148590000Y-76962000D01*
D13*
X142740000Y-109052000D03*
X141580000Y-109052000D03*
X142740000Y-107782000D03*
X141580000Y-107782000D03*
X142740000Y-106512000D03*
X141580000Y-106512000D03*
X142740000Y-105242000D03*
X141580000Y-105242000D03*
X142740000Y-103972000D03*
X141580000Y-103972000D03*
M02*
