%TF.GenerationSoftware,KiCad,Pcbnew,7.0.11*%
%TF.CreationDate,2024-10-30T13:42:53+11:00*%
%TF.ProjectId,iaq_device,6961715f-6465-4766-9963-652e6b696361,rev?*%
%TF.SameCoordinates,Original*%
%TF.FileFunction,Legend,Top*%
%TF.FilePolarity,Positive*%
%FSLAX46Y46*%
G04 Gerber Fmt 4.6, Leading zero omitted, Abs format (unit mm)*
G04 Created by KiCad (PCBNEW 7.0.11) date 2024-10-30 13:42:53*
%MOMM*%
%LPD*%
G01*
G04 APERTURE LIST*
%ADD10C,0.150000*%
%ADD11C,0.100000*%
%ADD12C,0.120000*%
%ADD13C,0.107000*%
G04 APERTURE END LIST*
D10*
X133547921Y-107336819D02*
X133071731Y-107336819D01*
X133071731Y-107336819D02*
X133071731Y-106336819D01*
X133881255Y-106813009D02*
X134214588Y-106813009D01*
X134357445Y-107336819D02*
X133881255Y-107336819D01*
X133881255Y-107336819D02*
X133881255Y-106336819D01*
X133881255Y-106336819D02*
X134357445Y-106336819D01*
X134786017Y-107336819D02*
X134786017Y-106336819D01*
X134786017Y-106336819D02*
X135024112Y-106336819D01*
X135024112Y-106336819D02*
X135166969Y-106384438D01*
X135166969Y-106384438D02*
X135262207Y-106479676D01*
X135262207Y-106479676D02*
X135309826Y-106574914D01*
X135309826Y-106574914D02*
X135357445Y-106765390D01*
X135357445Y-106765390D02*
X135357445Y-106908247D01*
X135357445Y-106908247D02*
X135309826Y-107098723D01*
X135309826Y-107098723D02*
X135262207Y-107193961D01*
X135262207Y-107193961D02*
X135166969Y-107289200D01*
X135166969Y-107289200D02*
X135024112Y-107336819D01*
X135024112Y-107336819D02*
X134786017Y-107336819D01*
X136452684Y-106336819D02*
X137071731Y-106336819D01*
X137071731Y-106336819D02*
X136738398Y-106717771D01*
X136738398Y-106717771D02*
X136881255Y-106717771D01*
X136881255Y-106717771D02*
X136976493Y-106765390D01*
X136976493Y-106765390D02*
X137024112Y-106813009D01*
X137024112Y-106813009D02*
X137071731Y-106908247D01*
X137071731Y-106908247D02*
X137071731Y-107146342D01*
X137071731Y-107146342D02*
X137024112Y-107241580D01*
X137024112Y-107241580D02*
X136976493Y-107289200D01*
X136976493Y-107289200D02*
X136881255Y-107336819D01*
X136881255Y-107336819D02*
X136595541Y-107336819D01*
X136595541Y-107336819D02*
X136500303Y-107289200D01*
X136500303Y-107289200D02*
X136452684Y-107241580D01*
X108372380Y-75750009D02*
X108705713Y-75750009D01*
X108848570Y-76273819D02*
X108372380Y-76273819D01*
X108372380Y-76273819D02*
X108372380Y-75273819D01*
X108372380Y-75273819D02*
X108848570Y-75273819D01*
X109229523Y-76226200D02*
X109372380Y-76273819D01*
X109372380Y-76273819D02*
X109610475Y-76273819D01*
X109610475Y-76273819D02*
X109705713Y-76226200D01*
X109705713Y-76226200D02*
X109753332Y-76178580D01*
X109753332Y-76178580D02*
X109800951Y-76083342D01*
X109800951Y-76083342D02*
X109800951Y-75988104D01*
X109800951Y-75988104D02*
X109753332Y-75892866D01*
X109753332Y-75892866D02*
X109705713Y-75845247D01*
X109705713Y-75845247D02*
X109610475Y-75797628D01*
X109610475Y-75797628D02*
X109419999Y-75750009D01*
X109419999Y-75750009D02*
X109324761Y-75702390D01*
X109324761Y-75702390D02*
X109277142Y-75654771D01*
X109277142Y-75654771D02*
X109229523Y-75559533D01*
X109229523Y-75559533D02*
X109229523Y-75464295D01*
X109229523Y-75464295D02*
X109277142Y-75369057D01*
X109277142Y-75369057D02*
X109324761Y-75321438D01*
X109324761Y-75321438D02*
X109419999Y-75273819D01*
X109419999Y-75273819D02*
X109658094Y-75273819D01*
X109658094Y-75273819D02*
X109800951Y-75321438D01*
X110229523Y-76273819D02*
X110229523Y-75273819D01*
X110229523Y-75273819D02*
X110610475Y-75273819D01*
X110610475Y-75273819D02*
X110705713Y-75321438D01*
X110705713Y-75321438D02*
X110753332Y-75369057D01*
X110753332Y-75369057D02*
X110800951Y-75464295D01*
X110800951Y-75464295D02*
X110800951Y-75607152D01*
X110800951Y-75607152D02*
X110753332Y-75702390D01*
X110753332Y-75702390D02*
X110705713Y-75750009D01*
X110705713Y-75750009D02*
X110610475Y-75797628D01*
X110610475Y-75797628D02*
X110229523Y-75797628D01*
X111134285Y-75273819D02*
X111753332Y-75273819D01*
X111753332Y-75273819D02*
X111419999Y-75654771D01*
X111419999Y-75654771D02*
X111562856Y-75654771D01*
X111562856Y-75654771D02*
X111658094Y-75702390D01*
X111658094Y-75702390D02*
X111705713Y-75750009D01*
X111705713Y-75750009D02*
X111753332Y-75845247D01*
X111753332Y-75845247D02*
X111753332Y-76083342D01*
X111753332Y-76083342D02*
X111705713Y-76178580D01*
X111705713Y-76178580D02*
X111658094Y-76226200D01*
X111658094Y-76226200D02*
X111562856Y-76273819D01*
X111562856Y-76273819D02*
X111277142Y-76273819D01*
X111277142Y-76273819D02*
X111181904Y-76226200D01*
X111181904Y-76226200D02*
X111134285Y-76178580D01*
X112134285Y-75369057D02*
X112181904Y-75321438D01*
X112181904Y-75321438D02*
X112277142Y-75273819D01*
X112277142Y-75273819D02*
X112515237Y-75273819D01*
X112515237Y-75273819D02*
X112610475Y-75321438D01*
X112610475Y-75321438D02*
X112658094Y-75369057D01*
X112658094Y-75369057D02*
X112705713Y-75464295D01*
X112705713Y-75464295D02*
X112705713Y-75559533D01*
X112705713Y-75559533D02*
X112658094Y-75702390D01*
X112658094Y-75702390D02*
X112086666Y-76273819D01*
X112086666Y-76273819D02*
X112705713Y-76273819D01*
X113134285Y-75892866D02*
X113896190Y-75892866D01*
X114943808Y-76178580D02*
X114896189Y-76226200D01*
X114896189Y-76226200D02*
X114753332Y-76273819D01*
X114753332Y-76273819D02*
X114658094Y-76273819D01*
X114658094Y-76273819D02*
X114515237Y-76226200D01*
X114515237Y-76226200D02*
X114419999Y-76130961D01*
X114419999Y-76130961D02*
X114372380Y-76035723D01*
X114372380Y-76035723D02*
X114324761Y-75845247D01*
X114324761Y-75845247D02*
X114324761Y-75702390D01*
X114324761Y-75702390D02*
X114372380Y-75511914D01*
X114372380Y-75511914D02*
X114419999Y-75416676D01*
X114419999Y-75416676D02*
X114515237Y-75321438D01*
X114515237Y-75321438D02*
X114658094Y-75273819D01*
X114658094Y-75273819D02*
X114753332Y-75273819D01*
X114753332Y-75273819D02*
X114896189Y-75321438D01*
X114896189Y-75321438D02*
X114943808Y-75369057D01*
X115277142Y-75273819D02*
X115896189Y-75273819D01*
X115896189Y-75273819D02*
X115562856Y-75654771D01*
X115562856Y-75654771D02*
X115705713Y-75654771D01*
X115705713Y-75654771D02*
X115800951Y-75702390D01*
X115800951Y-75702390D02*
X115848570Y-75750009D01*
X115848570Y-75750009D02*
X115896189Y-75845247D01*
X115896189Y-75845247D02*
X115896189Y-76083342D01*
X115896189Y-76083342D02*
X115848570Y-76178580D01*
X115848570Y-76178580D02*
X115800951Y-76226200D01*
X115800951Y-76226200D02*
X115705713Y-76273819D01*
X115705713Y-76273819D02*
X115419999Y-76273819D01*
X115419999Y-76273819D02*
X115324761Y-76226200D01*
X115324761Y-76226200D02*
X115277142Y-76178580D01*
X117039047Y-75988104D02*
X117515237Y-75988104D01*
X116943809Y-76273819D02*
X117277142Y-75273819D01*
X117277142Y-75273819D02*
X117610475Y-76273819D01*
X117943809Y-76273819D02*
X117943809Y-75607152D01*
X117943809Y-75273819D02*
X117896190Y-75321438D01*
X117896190Y-75321438D02*
X117943809Y-75369057D01*
X117943809Y-75369057D02*
X117991428Y-75321438D01*
X117991428Y-75321438D02*
X117943809Y-75273819D01*
X117943809Y-75273819D02*
X117943809Y-75369057D01*
X118419999Y-76273819D02*
X118419999Y-75607152D01*
X118419999Y-75797628D02*
X118467618Y-75702390D01*
X118467618Y-75702390D02*
X118515237Y-75654771D01*
X118515237Y-75654771D02*
X118610475Y-75607152D01*
X118610475Y-75607152D02*
X118705713Y-75607152D01*
X120467618Y-76369057D02*
X120372380Y-76321438D01*
X120372380Y-76321438D02*
X120277142Y-76226200D01*
X120277142Y-76226200D02*
X120134285Y-76083342D01*
X120134285Y-76083342D02*
X120039047Y-76035723D01*
X120039047Y-76035723D02*
X119943809Y-76035723D01*
X119991428Y-76273819D02*
X119896190Y-76226200D01*
X119896190Y-76226200D02*
X119800952Y-76130961D01*
X119800952Y-76130961D02*
X119753333Y-75940485D01*
X119753333Y-75940485D02*
X119753333Y-75607152D01*
X119753333Y-75607152D02*
X119800952Y-75416676D01*
X119800952Y-75416676D02*
X119896190Y-75321438D01*
X119896190Y-75321438D02*
X119991428Y-75273819D01*
X119991428Y-75273819D02*
X120181904Y-75273819D01*
X120181904Y-75273819D02*
X120277142Y-75321438D01*
X120277142Y-75321438D02*
X120372380Y-75416676D01*
X120372380Y-75416676D02*
X120419999Y-75607152D01*
X120419999Y-75607152D02*
X120419999Y-75940485D01*
X120419999Y-75940485D02*
X120372380Y-76130961D01*
X120372380Y-76130961D02*
X120277142Y-76226200D01*
X120277142Y-76226200D02*
X120181904Y-76273819D01*
X120181904Y-76273819D02*
X119991428Y-76273819D01*
X121277142Y-75607152D02*
X121277142Y-76273819D01*
X120848571Y-75607152D02*
X120848571Y-76130961D01*
X120848571Y-76130961D02*
X120896190Y-76226200D01*
X120896190Y-76226200D02*
X120991428Y-76273819D01*
X120991428Y-76273819D02*
X121134285Y-76273819D01*
X121134285Y-76273819D02*
X121229523Y-76226200D01*
X121229523Y-76226200D02*
X121277142Y-76178580D01*
X122181904Y-76273819D02*
X122181904Y-75750009D01*
X122181904Y-75750009D02*
X122134285Y-75654771D01*
X122134285Y-75654771D02*
X122039047Y-75607152D01*
X122039047Y-75607152D02*
X121848571Y-75607152D01*
X121848571Y-75607152D02*
X121753333Y-75654771D01*
X122181904Y-76226200D02*
X122086666Y-76273819D01*
X122086666Y-76273819D02*
X121848571Y-76273819D01*
X121848571Y-76273819D02*
X121753333Y-76226200D01*
X121753333Y-76226200D02*
X121705714Y-76130961D01*
X121705714Y-76130961D02*
X121705714Y-76035723D01*
X121705714Y-76035723D02*
X121753333Y-75940485D01*
X121753333Y-75940485D02*
X121848571Y-75892866D01*
X121848571Y-75892866D02*
X122086666Y-75892866D01*
X122086666Y-75892866D02*
X122181904Y-75845247D01*
X122800952Y-76273819D02*
X122705714Y-76226200D01*
X122705714Y-76226200D02*
X122658095Y-76130961D01*
X122658095Y-76130961D02*
X122658095Y-75273819D01*
X123181905Y-76273819D02*
X123181905Y-75607152D01*
X123181905Y-75273819D02*
X123134286Y-75321438D01*
X123134286Y-75321438D02*
X123181905Y-75369057D01*
X123181905Y-75369057D02*
X123229524Y-75321438D01*
X123229524Y-75321438D02*
X123181905Y-75273819D01*
X123181905Y-75273819D02*
X123181905Y-75369057D01*
X123515238Y-75607152D02*
X123896190Y-75607152D01*
X123658095Y-75273819D02*
X123658095Y-76130961D01*
X123658095Y-76130961D02*
X123705714Y-76226200D01*
X123705714Y-76226200D02*
X123800952Y-76273819D01*
X123800952Y-76273819D02*
X123896190Y-76273819D01*
X124134286Y-75607152D02*
X124372381Y-76273819D01*
X124610476Y-75607152D02*
X124372381Y-76273819D01*
X124372381Y-76273819D02*
X124277143Y-76511914D01*
X124277143Y-76511914D02*
X124229524Y-76559533D01*
X124229524Y-76559533D02*
X124134286Y-76607152D01*
X126086667Y-75750009D02*
X126229524Y-75797628D01*
X126229524Y-75797628D02*
X126277143Y-75845247D01*
X126277143Y-75845247D02*
X126324762Y-75940485D01*
X126324762Y-75940485D02*
X126324762Y-76083342D01*
X126324762Y-76083342D02*
X126277143Y-76178580D01*
X126277143Y-76178580D02*
X126229524Y-76226200D01*
X126229524Y-76226200D02*
X126134286Y-76273819D01*
X126134286Y-76273819D02*
X125753334Y-76273819D01*
X125753334Y-76273819D02*
X125753334Y-75273819D01*
X125753334Y-75273819D02*
X126086667Y-75273819D01*
X126086667Y-75273819D02*
X126181905Y-75321438D01*
X126181905Y-75321438D02*
X126229524Y-75369057D01*
X126229524Y-75369057D02*
X126277143Y-75464295D01*
X126277143Y-75464295D02*
X126277143Y-75559533D01*
X126277143Y-75559533D02*
X126229524Y-75654771D01*
X126229524Y-75654771D02*
X126181905Y-75702390D01*
X126181905Y-75702390D02*
X126086667Y-75750009D01*
X126086667Y-75750009D02*
X125753334Y-75750009D01*
X126896191Y-76273819D02*
X126800953Y-76226200D01*
X126800953Y-76226200D02*
X126753334Y-76178580D01*
X126753334Y-76178580D02*
X126705715Y-76083342D01*
X126705715Y-76083342D02*
X126705715Y-75797628D01*
X126705715Y-75797628D02*
X126753334Y-75702390D01*
X126753334Y-75702390D02*
X126800953Y-75654771D01*
X126800953Y-75654771D02*
X126896191Y-75607152D01*
X126896191Y-75607152D02*
X127039048Y-75607152D01*
X127039048Y-75607152D02*
X127134286Y-75654771D01*
X127134286Y-75654771D02*
X127181905Y-75702390D01*
X127181905Y-75702390D02*
X127229524Y-75797628D01*
X127229524Y-75797628D02*
X127229524Y-76083342D01*
X127229524Y-76083342D02*
X127181905Y-76178580D01*
X127181905Y-76178580D02*
X127134286Y-76226200D01*
X127134286Y-76226200D02*
X127039048Y-76273819D01*
X127039048Y-76273819D02*
X126896191Y-76273819D01*
X128086667Y-76273819D02*
X128086667Y-75750009D01*
X128086667Y-75750009D02*
X128039048Y-75654771D01*
X128039048Y-75654771D02*
X127943810Y-75607152D01*
X127943810Y-75607152D02*
X127753334Y-75607152D01*
X127753334Y-75607152D02*
X127658096Y-75654771D01*
X128086667Y-76226200D02*
X127991429Y-76273819D01*
X127991429Y-76273819D02*
X127753334Y-76273819D01*
X127753334Y-76273819D02*
X127658096Y-76226200D01*
X127658096Y-76226200D02*
X127610477Y-76130961D01*
X127610477Y-76130961D02*
X127610477Y-76035723D01*
X127610477Y-76035723D02*
X127658096Y-75940485D01*
X127658096Y-75940485D02*
X127753334Y-75892866D01*
X127753334Y-75892866D02*
X127991429Y-75892866D01*
X127991429Y-75892866D02*
X128086667Y-75845247D01*
X128562858Y-76273819D02*
X128562858Y-75607152D01*
X128562858Y-75797628D02*
X128610477Y-75702390D01*
X128610477Y-75702390D02*
X128658096Y-75654771D01*
X128658096Y-75654771D02*
X128753334Y-75607152D01*
X128753334Y-75607152D02*
X128848572Y-75607152D01*
X129610477Y-76273819D02*
X129610477Y-75273819D01*
X129610477Y-76226200D02*
X129515239Y-76273819D01*
X129515239Y-76273819D02*
X129324763Y-76273819D01*
X129324763Y-76273819D02*
X129229525Y-76226200D01*
X129229525Y-76226200D02*
X129181906Y-76178580D01*
X129181906Y-76178580D02*
X129134287Y-76083342D01*
X129134287Y-76083342D02*
X129134287Y-75797628D01*
X129134287Y-75797628D02*
X129181906Y-75702390D01*
X129181906Y-75702390D02*
X129229525Y-75654771D01*
X129229525Y-75654771D02*
X129324763Y-75607152D01*
X129324763Y-75607152D02*
X129515239Y-75607152D01*
X129515239Y-75607152D02*
X129610477Y-75654771D01*
X130848573Y-76273819D02*
X130848573Y-75607152D01*
X130848573Y-75797628D02*
X130896192Y-75702390D01*
X130896192Y-75702390D02*
X130943811Y-75654771D01*
X130943811Y-75654771D02*
X131039049Y-75607152D01*
X131039049Y-75607152D02*
X131134287Y-75607152D01*
X131848573Y-76226200D02*
X131753335Y-76273819D01*
X131753335Y-76273819D02*
X131562859Y-76273819D01*
X131562859Y-76273819D02*
X131467621Y-76226200D01*
X131467621Y-76226200D02*
X131420002Y-76130961D01*
X131420002Y-76130961D02*
X131420002Y-75750009D01*
X131420002Y-75750009D02*
X131467621Y-75654771D01*
X131467621Y-75654771D02*
X131562859Y-75607152D01*
X131562859Y-75607152D02*
X131753335Y-75607152D01*
X131753335Y-75607152D02*
X131848573Y-75654771D01*
X131848573Y-75654771D02*
X131896192Y-75750009D01*
X131896192Y-75750009D02*
X131896192Y-75845247D01*
X131896192Y-75845247D02*
X131420002Y-75940485D01*
X132229526Y-75607152D02*
X132467621Y-76273819D01*
X132467621Y-76273819D02*
X132705716Y-75607152D01*
X133086669Y-76178580D02*
X133134288Y-76226200D01*
X133134288Y-76226200D02*
X133086669Y-76273819D01*
X133086669Y-76273819D02*
X133039050Y-76226200D01*
X133039050Y-76226200D02*
X133086669Y-76178580D01*
X133086669Y-76178580D02*
X133086669Y-76273819D01*
X133515240Y-75369057D02*
X133562859Y-75321438D01*
X133562859Y-75321438D02*
X133658097Y-75273819D01*
X133658097Y-75273819D02*
X133896192Y-75273819D01*
X133896192Y-75273819D02*
X133991430Y-75321438D01*
X133991430Y-75321438D02*
X134039049Y-75369057D01*
X134039049Y-75369057D02*
X134086668Y-75464295D01*
X134086668Y-75464295D02*
X134086668Y-75559533D01*
X134086668Y-75559533D02*
X134039049Y-75702390D01*
X134039049Y-75702390D02*
X133467621Y-76273819D01*
X133467621Y-76273819D02*
X134086668Y-76273819D01*
X134515240Y-76178580D02*
X134562859Y-76226200D01*
X134562859Y-76226200D02*
X134515240Y-76273819D01*
X134515240Y-76273819D02*
X134467621Y-76226200D01*
X134467621Y-76226200D02*
X134515240Y-76178580D01*
X134515240Y-76178580D02*
X134515240Y-76273819D01*
X135181906Y-75273819D02*
X135277144Y-75273819D01*
X135277144Y-75273819D02*
X135372382Y-75321438D01*
X135372382Y-75321438D02*
X135420001Y-75369057D01*
X135420001Y-75369057D02*
X135467620Y-75464295D01*
X135467620Y-75464295D02*
X135515239Y-75654771D01*
X135515239Y-75654771D02*
X135515239Y-75892866D01*
X135515239Y-75892866D02*
X135467620Y-76083342D01*
X135467620Y-76083342D02*
X135420001Y-76178580D01*
X135420001Y-76178580D02*
X135372382Y-76226200D01*
X135372382Y-76226200D02*
X135277144Y-76273819D01*
X135277144Y-76273819D02*
X135181906Y-76273819D01*
X135181906Y-76273819D02*
X135086668Y-76226200D01*
X135086668Y-76226200D02*
X135039049Y-76178580D01*
X135039049Y-76178580D02*
X134991430Y-76083342D01*
X134991430Y-76083342D02*
X134943811Y-75892866D01*
X134943811Y-75892866D02*
X134943811Y-75654771D01*
X134943811Y-75654771D02*
X134991430Y-75464295D01*
X134991430Y-75464295D02*
X135039049Y-75369057D01*
X135039049Y-75369057D02*
X135086668Y-75321438D01*
X135086668Y-75321438D02*
X135181906Y-75273819D01*
X171177191Y-115892842D02*
X171139095Y-115935700D01*
X171139095Y-115935700D02*
X171024810Y-115978557D01*
X171024810Y-115978557D02*
X170948619Y-115978557D01*
X170948619Y-115978557D02*
X170834333Y-115935700D01*
X170834333Y-115935700D02*
X170758143Y-115849985D01*
X170758143Y-115849985D02*
X170720048Y-115764271D01*
X170720048Y-115764271D02*
X170681952Y-115592842D01*
X170681952Y-115592842D02*
X170681952Y-115464271D01*
X170681952Y-115464271D02*
X170720048Y-115292842D01*
X170720048Y-115292842D02*
X170758143Y-115207128D01*
X170758143Y-115207128D02*
X170834333Y-115121414D01*
X170834333Y-115121414D02*
X170948619Y-115078557D01*
X170948619Y-115078557D02*
X171024810Y-115078557D01*
X171024810Y-115078557D02*
X171139095Y-115121414D01*
X171139095Y-115121414D02*
X171177191Y-115164271D01*
X171672429Y-115078557D02*
X171824810Y-115078557D01*
X171824810Y-115078557D02*
X171901000Y-115121414D01*
X171901000Y-115121414D02*
X171977191Y-115207128D01*
X171977191Y-115207128D02*
X172015286Y-115378557D01*
X172015286Y-115378557D02*
X172015286Y-115678557D01*
X172015286Y-115678557D02*
X171977191Y-115849985D01*
X171977191Y-115849985D02*
X171901000Y-115935700D01*
X171901000Y-115935700D02*
X171824810Y-115978557D01*
X171824810Y-115978557D02*
X171672429Y-115978557D01*
X171672429Y-115978557D02*
X171596238Y-115935700D01*
X171596238Y-115935700D02*
X171520048Y-115849985D01*
X171520048Y-115849985D02*
X171481952Y-115678557D01*
X171481952Y-115678557D02*
X171481952Y-115378557D01*
X171481952Y-115378557D02*
X171520048Y-115207128D01*
X171520048Y-115207128D02*
X171596238Y-115121414D01*
X171596238Y-115121414D02*
X171672429Y-115078557D01*
X172320047Y-115164271D02*
X172358143Y-115121414D01*
X172358143Y-115121414D02*
X172434333Y-115078557D01*
X172434333Y-115078557D02*
X172624809Y-115078557D01*
X172624809Y-115078557D02*
X172701000Y-115121414D01*
X172701000Y-115121414D02*
X172739095Y-115164271D01*
X172739095Y-115164271D02*
X172777190Y-115249985D01*
X172777190Y-115249985D02*
X172777190Y-115335700D01*
X172777190Y-115335700D02*
X172739095Y-115464271D01*
X172739095Y-115464271D02*
X172281952Y-115978557D01*
X172281952Y-115978557D02*
X172777190Y-115978557D01*
X174186715Y-115892842D02*
X174148619Y-115935700D01*
X174148619Y-115935700D02*
X174034334Y-115978557D01*
X174034334Y-115978557D02*
X173958143Y-115978557D01*
X173958143Y-115978557D02*
X173843857Y-115935700D01*
X173843857Y-115935700D02*
X173767667Y-115849985D01*
X173767667Y-115849985D02*
X173729572Y-115764271D01*
X173729572Y-115764271D02*
X173691476Y-115592842D01*
X173691476Y-115592842D02*
X173691476Y-115464271D01*
X173691476Y-115464271D02*
X173729572Y-115292842D01*
X173729572Y-115292842D02*
X173767667Y-115207128D01*
X173767667Y-115207128D02*
X173843857Y-115121414D01*
X173843857Y-115121414D02*
X173958143Y-115078557D01*
X173958143Y-115078557D02*
X174034334Y-115078557D01*
X174034334Y-115078557D02*
X174148619Y-115121414D01*
X174148619Y-115121414D02*
X174186715Y-115164271D01*
X174491476Y-115721414D02*
X174872429Y-115721414D01*
X174415286Y-115978557D02*
X174681953Y-115078557D01*
X174681953Y-115078557D02*
X174948619Y-115978557D01*
X175596238Y-115978557D02*
X175215286Y-115978557D01*
X175215286Y-115978557D02*
X175215286Y-115078557D01*
X124054499Y-107336819D02*
X123578309Y-107336819D01*
X123578309Y-107336819D02*
X123578309Y-106336819D01*
X124387833Y-106813009D02*
X124721166Y-106813009D01*
X124864023Y-107336819D02*
X124387833Y-107336819D01*
X124387833Y-107336819D02*
X124387833Y-106336819D01*
X124387833Y-106336819D02*
X124864023Y-106336819D01*
X125292595Y-107336819D02*
X125292595Y-106336819D01*
X125292595Y-106336819D02*
X125530690Y-106336819D01*
X125530690Y-106336819D02*
X125673547Y-106384438D01*
X125673547Y-106384438D02*
X125768785Y-106479676D01*
X125768785Y-106479676D02*
X125816404Y-106574914D01*
X125816404Y-106574914D02*
X125864023Y-106765390D01*
X125864023Y-106765390D02*
X125864023Y-106908247D01*
X125864023Y-106908247D02*
X125816404Y-107098723D01*
X125816404Y-107098723D02*
X125768785Y-107193961D01*
X125768785Y-107193961D02*
X125673547Y-107289200D01*
X125673547Y-107289200D02*
X125530690Y-107336819D01*
X125530690Y-107336819D02*
X125292595Y-107336819D01*
X127006881Y-106432057D02*
X127054500Y-106384438D01*
X127054500Y-106384438D02*
X127149738Y-106336819D01*
X127149738Y-106336819D02*
X127387833Y-106336819D01*
X127387833Y-106336819D02*
X127483071Y-106384438D01*
X127483071Y-106384438D02*
X127530690Y-106432057D01*
X127530690Y-106432057D02*
X127578309Y-106527295D01*
X127578309Y-106527295D02*
X127578309Y-106622533D01*
X127578309Y-106622533D02*
X127530690Y-106765390D01*
X127530690Y-106765390D02*
X126959262Y-107336819D01*
X126959262Y-107336819D02*
X127578309Y-107336819D01*
X108412524Y-78178819D02*
X108412524Y-77178819D01*
X108841095Y-78178819D02*
X108841095Y-77655009D01*
X108841095Y-77655009D02*
X108793476Y-77559771D01*
X108793476Y-77559771D02*
X108698238Y-77512152D01*
X108698238Y-77512152D02*
X108555381Y-77512152D01*
X108555381Y-77512152D02*
X108460143Y-77559771D01*
X108460143Y-77559771D02*
X108412524Y-77607390D01*
X109174429Y-77512152D02*
X109555381Y-77512152D01*
X109317286Y-77178819D02*
X109317286Y-78035961D01*
X109317286Y-78035961D02*
X109364905Y-78131200D01*
X109364905Y-78131200D02*
X109460143Y-78178819D01*
X109460143Y-78178819D02*
X109555381Y-78178819D01*
X109745858Y-77512152D02*
X110126810Y-77512152D01*
X109888715Y-77178819D02*
X109888715Y-78035961D01*
X109888715Y-78035961D02*
X109936334Y-78131200D01*
X109936334Y-78131200D02*
X110031572Y-78178819D01*
X110031572Y-78178819D02*
X110126810Y-78178819D01*
X110460144Y-77512152D02*
X110460144Y-78512152D01*
X110460144Y-77559771D02*
X110555382Y-77512152D01*
X110555382Y-77512152D02*
X110745858Y-77512152D01*
X110745858Y-77512152D02*
X110841096Y-77559771D01*
X110841096Y-77559771D02*
X110888715Y-77607390D01*
X110888715Y-77607390D02*
X110936334Y-77702628D01*
X110936334Y-77702628D02*
X110936334Y-77988342D01*
X110936334Y-77988342D02*
X110888715Y-78083580D01*
X110888715Y-78083580D02*
X110841096Y-78131200D01*
X110841096Y-78131200D02*
X110745858Y-78178819D01*
X110745858Y-78178819D02*
X110555382Y-78178819D01*
X110555382Y-78178819D02*
X110460144Y-78131200D01*
X111317287Y-78131200D02*
X111412525Y-78178819D01*
X111412525Y-78178819D02*
X111603001Y-78178819D01*
X111603001Y-78178819D02*
X111698239Y-78131200D01*
X111698239Y-78131200D02*
X111745858Y-78035961D01*
X111745858Y-78035961D02*
X111745858Y-77988342D01*
X111745858Y-77988342D02*
X111698239Y-77893104D01*
X111698239Y-77893104D02*
X111603001Y-77845485D01*
X111603001Y-77845485D02*
X111460144Y-77845485D01*
X111460144Y-77845485D02*
X111364906Y-77797866D01*
X111364906Y-77797866D02*
X111317287Y-77702628D01*
X111317287Y-77702628D02*
X111317287Y-77655009D01*
X111317287Y-77655009D02*
X111364906Y-77559771D01*
X111364906Y-77559771D02*
X111460144Y-77512152D01*
X111460144Y-77512152D02*
X111603001Y-77512152D01*
X111603001Y-77512152D02*
X111698239Y-77559771D01*
X112174430Y-78083580D02*
X112222049Y-78131200D01*
X112222049Y-78131200D02*
X112174430Y-78178819D01*
X112174430Y-78178819D02*
X112126811Y-78131200D01*
X112126811Y-78131200D02*
X112174430Y-78083580D01*
X112174430Y-78083580D02*
X112174430Y-78178819D01*
X112174430Y-77559771D02*
X112222049Y-77607390D01*
X112222049Y-77607390D02*
X112174430Y-77655009D01*
X112174430Y-77655009D02*
X112126811Y-77607390D01*
X112126811Y-77607390D02*
X112174430Y-77559771D01*
X112174430Y-77559771D02*
X112174430Y-77655009D01*
X113364905Y-77131200D02*
X112507763Y-78416914D01*
X114412524Y-77131200D02*
X113555382Y-78416914D01*
X115174429Y-77512152D02*
X115174429Y-78321676D01*
X115174429Y-78321676D02*
X115126810Y-78416914D01*
X115126810Y-78416914D02*
X115079191Y-78464533D01*
X115079191Y-78464533D02*
X114983953Y-78512152D01*
X114983953Y-78512152D02*
X114841096Y-78512152D01*
X114841096Y-78512152D02*
X114745858Y-78464533D01*
X115174429Y-78131200D02*
X115079191Y-78178819D01*
X115079191Y-78178819D02*
X114888715Y-78178819D01*
X114888715Y-78178819D02*
X114793477Y-78131200D01*
X114793477Y-78131200D02*
X114745858Y-78083580D01*
X114745858Y-78083580D02*
X114698239Y-77988342D01*
X114698239Y-77988342D02*
X114698239Y-77702628D01*
X114698239Y-77702628D02*
X114745858Y-77607390D01*
X114745858Y-77607390D02*
X114793477Y-77559771D01*
X114793477Y-77559771D02*
X114888715Y-77512152D01*
X114888715Y-77512152D02*
X115079191Y-77512152D01*
X115079191Y-77512152D02*
X115174429Y-77559771D01*
X115650620Y-78178819D02*
X115650620Y-77512152D01*
X115650620Y-77178819D02*
X115603001Y-77226438D01*
X115603001Y-77226438D02*
X115650620Y-77274057D01*
X115650620Y-77274057D02*
X115698239Y-77226438D01*
X115698239Y-77226438D02*
X115650620Y-77178819D01*
X115650620Y-77178819D02*
X115650620Y-77274057D01*
X115983953Y-77512152D02*
X116364905Y-77512152D01*
X116126810Y-77178819D02*
X116126810Y-78035961D01*
X116126810Y-78035961D02*
X116174429Y-78131200D01*
X116174429Y-78131200D02*
X116269667Y-78178819D01*
X116269667Y-78178819D02*
X116364905Y-78178819D01*
X116698239Y-78178819D02*
X116698239Y-77178819D01*
X117126810Y-78178819D02*
X117126810Y-77655009D01*
X117126810Y-77655009D02*
X117079191Y-77559771D01*
X117079191Y-77559771D02*
X116983953Y-77512152D01*
X116983953Y-77512152D02*
X116841096Y-77512152D01*
X116841096Y-77512152D02*
X116745858Y-77559771D01*
X116745858Y-77559771D02*
X116698239Y-77607390D01*
X118031572Y-77512152D02*
X118031572Y-78178819D01*
X117603001Y-77512152D02*
X117603001Y-78035961D01*
X117603001Y-78035961D02*
X117650620Y-78131200D01*
X117650620Y-78131200D02*
X117745858Y-78178819D01*
X117745858Y-78178819D02*
X117888715Y-78178819D01*
X117888715Y-78178819D02*
X117983953Y-78131200D01*
X117983953Y-78131200D02*
X118031572Y-78083580D01*
X118507763Y-78178819D02*
X118507763Y-77178819D01*
X118507763Y-77559771D02*
X118603001Y-77512152D01*
X118603001Y-77512152D02*
X118793477Y-77512152D01*
X118793477Y-77512152D02*
X118888715Y-77559771D01*
X118888715Y-77559771D02*
X118936334Y-77607390D01*
X118936334Y-77607390D02*
X118983953Y-77702628D01*
X118983953Y-77702628D02*
X118983953Y-77988342D01*
X118983953Y-77988342D02*
X118936334Y-78083580D01*
X118936334Y-78083580D02*
X118888715Y-78131200D01*
X118888715Y-78131200D02*
X118793477Y-78178819D01*
X118793477Y-78178819D02*
X118603001Y-78178819D01*
X118603001Y-78178819D02*
X118507763Y-78131200D01*
X119412525Y-78083580D02*
X119460144Y-78131200D01*
X119460144Y-78131200D02*
X119412525Y-78178819D01*
X119412525Y-78178819D02*
X119364906Y-78131200D01*
X119364906Y-78131200D02*
X119412525Y-78083580D01*
X119412525Y-78083580D02*
X119412525Y-78178819D01*
X120317286Y-78131200D02*
X120222048Y-78178819D01*
X120222048Y-78178819D02*
X120031572Y-78178819D01*
X120031572Y-78178819D02*
X119936334Y-78131200D01*
X119936334Y-78131200D02*
X119888715Y-78083580D01*
X119888715Y-78083580D02*
X119841096Y-77988342D01*
X119841096Y-77988342D02*
X119841096Y-77702628D01*
X119841096Y-77702628D02*
X119888715Y-77607390D01*
X119888715Y-77607390D02*
X119936334Y-77559771D01*
X119936334Y-77559771D02*
X120031572Y-77512152D01*
X120031572Y-77512152D02*
X120222048Y-77512152D01*
X120222048Y-77512152D02*
X120317286Y-77559771D01*
X120888715Y-78178819D02*
X120793477Y-78131200D01*
X120793477Y-78131200D02*
X120745858Y-78083580D01*
X120745858Y-78083580D02*
X120698239Y-77988342D01*
X120698239Y-77988342D02*
X120698239Y-77702628D01*
X120698239Y-77702628D02*
X120745858Y-77607390D01*
X120745858Y-77607390D02*
X120793477Y-77559771D01*
X120793477Y-77559771D02*
X120888715Y-77512152D01*
X120888715Y-77512152D02*
X121031572Y-77512152D01*
X121031572Y-77512152D02*
X121126810Y-77559771D01*
X121126810Y-77559771D02*
X121174429Y-77607390D01*
X121174429Y-77607390D02*
X121222048Y-77702628D01*
X121222048Y-77702628D02*
X121222048Y-77988342D01*
X121222048Y-77988342D02*
X121174429Y-78083580D01*
X121174429Y-78083580D02*
X121126810Y-78131200D01*
X121126810Y-78131200D02*
X121031572Y-78178819D01*
X121031572Y-78178819D02*
X120888715Y-78178819D01*
X121650620Y-78178819D02*
X121650620Y-77512152D01*
X121650620Y-77607390D02*
X121698239Y-77559771D01*
X121698239Y-77559771D02*
X121793477Y-77512152D01*
X121793477Y-77512152D02*
X121936334Y-77512152D01*
X121936334Y-77512152D02*
X122031572Y-77559771D01*
X122031572Y-77559771D02*
X122079191Y-77655009D01*
X122079191Y-77655009D02*
X122079191Y-78178819D01*
X122079191Y-77655009D02*
X122126810Y-77559771D01*
X122126810Y-77559771D02*
X122222048Y-77512152D01*
X122222048Y-77512152D02*
X122364905Y-77512152D01*
X122364905Y-77512152D02*
X122460144Y-77559771D01*
X122460144Y-77559771D02*
X122507763Y-77655009D01*
X122507763Y-77655009D02*
X122507763Y-78178819D01*
X123698238Y-77131200D02*
X122841096Y-78416914D01*
X124031572Y-77512152D02*
X124031572Y-78178819D01*
X124031572Y-77607390D02*
X124079191Y-77559771D01*
X124079191Y-77559771D02*
X124174429Y-77512152D01*
X124174429Y-77512152D02*
X124317286Y-77512152D01*
X124317286Y-77512152D02*
X124412524Y-77559771D01*
X124412524Y-77559771D02*
X124460143Y-77655009D01*
X124460143Y-77655009D02*
X124460143Y-78178819D01*
X125079191Y-78178819D02*
X124983953Y-78131200D01*
X124983953Y-78131200D02*
X124936334Y-78083580D01*
X124936334Y-78083580D02*
X124888715Y-77988342D01*
X124888715Y-77988342D02*
X124888715Y-77702628D01*
X124888715Y-77702628D02*
X124936334Y-77607390D01*
X124936334Y-77607390D02*
X124983953Y-77559771D01*
X124983953Y-77559771D02*
X125079191Y-77512152D01*
X125079191Y-77512152D02*
X125222048Y-77512152D01*
X125222048Y-77512152D02*
X125317286Y-77559771D01*
X125317286Y-77559771D02*
X125364905Y-77607390D01*
X125364905Y-77607390D02*
X125412524Y-77702628D01*
X125412524Y-77702628D02*
X125412524Y-77988342D01*
X125412524Y-77988342D02*
X125364905Y-78083580D01*
X125364905Y-78083580D02*
X125317286Y-78131200D01*
X125317286Y-78131200D02*
X125222048Y-78178819D01*
X125222048Y-78178819D02*
X125079191Y-78178819D01*
X125841096Y-78178819D02*
X125841096Y-77512152D01*
X125841096Y-77178819D02*
X125793477Y-77226438D01*
X125793477Y-77226438D02*
X125841096Y-77274057D01*
X125841096Y-77274057D02*
X125888715Y-77226438D01*
X125888715Y-77226438D02*
X125841096Y-77178819D01*
X125841096Y-77178819D02*
X125841096Y-77274057D01*
X126269667Y-78131200D02*
X126364905Y-78178819D01*
X126364905Y-78178819D02*
X126555381Y-78178819D01*
X126555381Y-78178819D02*
X126650619Y-78131200D01*
X126650619Y-78131200D02*
X126698238Y-78035961D01*
X126698238Y-78035961D02*
X126698238Y-77988342D01*
X126698238Y-77988342D02*
X126650619Y-77893104D01*
X126650619Y-77893104D02*
X126555381Y-77845485D01*
X126555381Y-77845485D02*
X126412524Y-77845485D01*
X126412524Y-77845485D02*
X126317286Y-77797866D01*
X126317286Y-77797866D02*
X126269667Y-77702628D01*
X126269667Y-77702628D02*
X126269667Y-77655009D01*
X126269667Y-77655009D02*
X126317286Y-77559771D01*
X126317286Y-77559771D02*
X126412524Y-77512152D01*
X126412524Y-77512152D02*
X126555381Y-77512152D01*
X126555381Y-77512152D02*
X126650619Y-77559771D01*
X127031572Y-77512152D02*
X127269667Y-78178819D01*
X127507762Y-77512152D02*
X127269667Y-78178819D01*
X127269667Y-78178819D02*
X127174429Y-78416914D01*
X127174429Y-78416914D02*
X127126810Y-78464533D01*
X127126810Y-78464533D02*
X127031572Y-78512152D01*
X127888715Y-78178819D02*
X127888715Y-77512152D01*
X127888715Y-77607390D02*
X127936334Y-77559771D01*
X127936334Y-77559771D02*
X128031572Y-77512152D01*
X128031572Y-77512152D02*
X128174429Y-77512152D01*
X128174429Y-77512152D02*
X128269667Y-77559771D01*
X128269667Y-77559771D02*
X128317286Y-77655009D01*
X128317286Y-77655009D02*
X128317286Y-78178819D01*
X128317286Y-77655009D02*
X128364905Y-77559771D01*
X128364905Y-77559771D02*
X128460143Y-77512152D01*
X128460143Y-77512152D02*
X128603000Y-77512152D01*
X128603000Y-77512152D02*
X128698239Y-77559771D01*
X128698239Y-77559771D02*
X128745858Y-77655009D01*
X128745858Y-77655009D02*
X128745858Y-78178819D01*
X129222048Y-78178819D02*
X129222048Y-77512152D01*
X129222048Y-77178819D02*
X129174429Y-77226438D01*
X129174429Y-77226438D02*
X129222048Y-77274057D01*
X129222048Y-77274057D02*
X129269667Y-77226438D01*
X129269667Y-77226438D02*
X129222048Y-77178819D01*
X129222048Y-77178819D02*
X129222048Y-77274057D01*
X129698238Y-78178819D02*
X129698238Y-77512152D01*
X129698238Y-77607390D02*
X129745857Y-77559771D01*
X129745857Y-77559771D02*
X129841095Y-77512152D01*
X129841095Y-77512152D02*
X129983952Y-77512152D01*
X129983952Y-77512152D02*
X130079190Y-77559771D01*
X130079190Y-77559771D02*
X130126809Y-77655009D01*
X130126809Y-77655009D02*
X130126809Y-78178819D01*
X130126809Y-77655009D02*
X130174428Y-77559771D01*
X130174428Y-77559771D02*
X130269666Y-77512152D01*
X130269666Y-77512152D02*
X130412523Y-77512152D01*
X130412523Y-77512152D02*
X130507762Y-77559771D01*
X130507762Y-77559771D02*
X130555381Y-77655009D01*
X130555381Y-77655009D02*
X130555381Y-78178819D01*
X131412523Y-78131200D02*
X131317285Y-78178819D01*
X131317285Y-78178819D02*
X131126809Y-78178819D01*
X131126809Y-78178819D02*
X131031571Y-78131200D01*
X131031571Y-78131200D02*
X130983952Y-78035961D01*
X130983952Y-78035961D02*
X130983952Y-77655009D01*
X130983952Y-77655009D02*
X131031571Y-77559771D01*
X131031571Y-77559771D02*
X131126809Y-77512152D01*
X131126809Y-77512152D02*
X131317285Y-77512152D01*
X131317285Y-77512152D02*
X131412523Y-77559771D01*
X131412523Y-77559771D02*
X131460142Y-77655009D01*
X131460142Y-77655009D02*
X131460142Y-77750247D01*
X131460142Y-77750247D02*
X130983952Y-77845485D01*
X132602999Y-77131200D02*
X131745857Y-78416914D01*
X132936333Y-78178819D02*
X132936333Y-77512152D01*
X132936333Y-77178819D02*
X132888714Y-77226438D01*
X132888714Y-77226438D02*
X132936333Y-77274057D01*
X132936333Y-77274057D02*
X132983952Y-77226438D01*
X132983952Y-77226438D02*
X132936333Y-77178819D01*
X132936333Y-77178819D02*
X132936333Y-77274057D01*
X133841094Y-78178819D02*
X133841094Y-77655009D01*
X133841094Y-77655009D02*
X133793475Y-77559771D01*
X133793475Y-77559771D02*
X133698237Y-77512152D01*
X133698237Y-77512152D02*
X133507761Y-77512152D01*
X133507761Y-77512152D02*
X133412523Y-77559771D01*
X133841094Y-78131200D02*
X133745856Y-78178819D01*
X133745856Y-78178819D02*
X133507761Y-78178819D01*
X133507761Y-78178819D02*
X133412523Y-78131200D01*
X133412523Y-78131200D02*
X133364904Y-78035961D01*
X133364904Y-78035961D02*
X133364904Y-77940723D01*
X133364904Y-77940723D02*
X133412523Y-77845485D01*
X133412523Y-77845485D02*
X133507761Y-77797866D01*
X133507761Y-77797866D02*
X133745856Y-77797866D01*
X133745856Y-77797866D02*
X133841094Y-77750247D01*
X134745856Y-77512152D02*
X134745856Y-78512152D01*
X134745856Y-78131200D02*
X134650618Y-78178819D01*
X134650618Y-78178819D02*
X134460142Y-78178819D01*
X134460142Y-78178819D02*
X134364904Y-78131200D01*
X134364904Y-78131200D02*
X134317285Y-78083580D01*
X134317285Y-78083580D02*
X134269666Y-77988342D01*
X134269666Y-77988342D02*
X134269666Y-77702628D01*
X134269666Y-77702628D02*
X134317285Y-77607390D01*
X134317285Y-77607390D02*
X134364904Y-77559771D01*
X134364904Y-77559771D02*
X134460142Y-77512152D01*
X134460142Y-77512152D02*
X134650618Y-77512152D01*
X134650618Y-77512152D02*
X134745856Y-77559771D01*
X134983952Y-78274057D02*
X135745856Y-78274057D01*
X135983952Y-78178819D02*
X135983952Y-77178819D01*
X135983952Y-77559771D02*
X136079190Y-77512152D01*
X136079190Y-77512152D02*
X136269666Y-77512152D01*
X136269666Y-77512152D02*
X136364904Y-77559771D01*
X136364904Y-77559771D02*
X136412523Y-77607390D01*
X136412523Y-77607390D02*
X136460142Y-77702628D01*
X136460142Y-77702628D02*
X136460142Y-77988342D01*
X136460142Y-77988342D02*
X136412523Y-78083580D01*
X136412523Y-78083580D02*
X136364904Y-78131200D01*
X136364904Y-78131200D02*
X136269666Y-78178819D01*
X136269666Y-78178819D02*
X136079190Y-78178819D01*
X136079190Y-78178819D02*
X135983952Y-78131200D01*
X137031571Y-78178819D02*
X136936333Y-78131200D01*
X136936333Y-78131200D02*
X136888714Y-78083580D01*
X136888714Y-78083580D02*
X136841095Y-77988342D01*
X136841095Y-77988342D02*
X136841095Y-77702628D01*
X136841095Y-77702628D02*
X136888714Y-77607390D01*
X136888714Y-77607390D02*
X136936333Y-77559771D01*
X136936333Y-77559771D02*
X137031571Y-77512152D01*
X137031571Y-77512152D02*
X137174428Y-77512152D01*
X137174428Y-77512152D02*
X137269666Y-77559771D01*
X137269666Y-77559771D02*
X137317285Y-77607390D01*
X137317285Y-77607390D02*
X137364904Y-77702628D01*
X137364904Y-77702628D02*
X137364904Y-77988342D01*
X137364904Y-77988342D02*
X137317285Y-78083580D01*
X137317285Y-78083580D02*
X137269666Y-78131200D01*
X137269666Y-78131200D02*
X137174428Y-78178819D01*
X137174428Y-78178819D02*
X137031571Y-78178819D01*
X138222047Y-78178819D02*
X138222047Y-77655009D01*
X138222047Y-77655009D02*
X138174428Y-77559771D01*
X138174428Y-77559771D02*
X138079190Y-77512152D01*
X138079190Y-77512152D02*
X137888714Y-77512152D01*
X137888714Y-77512152D02*
X137793476Y-77559771D01*
X138222047Y-78131200D02*
X138126809Y-78178819D01*
X138126809Y-78178819D02*
X137888714Y-78178819D01*
X137888714Y-78178819D02*
X137793476Y-78131200D01*
X137793476Y-78131200D02*
X137745857Y-78035961D01*
X137745857Y-78035961D02*
X137745857Y-77940723D01*
X137745857Y-77940723D02*
X137793476Y-77845485D01*
X137793476Y-77845485D02*
X137888714Y-77797866D01*
X137888714Y-77797866D02*
X138126809Y-77797866D01*
X138126809Y-77797866D02*
X138222047Y-77750247D01*
X138698238Y-78178819D02*
X138698238Y-77512152D01*
X138698238Y-77702628D02*
X138745857Y-77607390D01*
X138745857Y-77607390D02*
X138793476Y-77559771D01*
X138793476Y-77559771D02*
X138888714Y-77512152D01*
X138888714Y-77512152D02*
X138983952Y-77512152D01*
X139745857Y-78178819D02*
X139745857Y-77178819D01*
X139745857Y-78131200D02*
X139650619Y-78178819D01*
X139650619Y-78178819D02*
X139460143Y-78178819D01*
X139460143Y-78178819D02*
X139364905Y-78131200D01*
X139364905Y-78131200D02*
X139317286Y-78083580D01*
X139317286Y-78083580D02*
X139269667Y-77988342D01*
X139269667Y-77988342D02*
X139269667Y-77702628D01*
X139269667Y-77702628D02*
X139317286Y-77607390D01*
X139317286Y-77607390D02*
X139364905Y-77559771D01*
X139364905Y-77559771D02*
X139460143Y-77512152D01*
X139460143Y-77512152D02*
X139650619Y-77512152D01*
X139650619Y-77512152D02*
X139745857Y-77559771D01*
X140222048Y-77797866D02*
X140983953Y-77797866D01*
X141888714Y-78131200D02*
X141793476Y-78178819D01*
X141793476Y-78178819D02*
X141603000Y-78178819D01*
X141603000Y-78178819D02*
X141507762Y-78131200D01*
X141507762Y-78131200D02*
X141460143Y-78083580D01*
X141460143Y-78083580D02*
X141412524Y-77988342D01*
X141412524Y-77988342D02*
X141412524Y-77702628D01*
X141412524Y-77702628D02*
X141460143Y-77607390D01*
X141460143Y-77607390D02*
X141507762Y-77559771D01*
X141507762Y-77559771D02*
X141603000Y-77512152D01*
X141603000Y-77512152D02*
X141793476Y-77512152D01*
X141793476Y-77512152D02*
X141888714Y-77559771D01*
X142222048Y-77178819D02*
X142841095Y-77178819D01*
X142841095Y-77178819D02*
X142507762Y-77559771D01*
X142507762Y-77559771D02*
X142650619Y-77559771D01*
X142650619Y-77559771D02*
X142745857Y-77607390D01*
X142745857Y-77607390D02*
X142793476Y-77655009D01*
X142793476Y-77655009D02*
X142841095Y-77750247D01*
X142841095Y-77750247D02*
X142841095Y-77988342D01*
X142841095Y-77988342D02*
X142793476Y-78083580D01*
X142793476Y-78083580D02*
X142745857Y-78131200D01*
X142745857Y-78131200D02*
X142650619Y-78178819D01*
X142650619Y-78178819D02*
X142364905Y-78178819D01*
X142364905Y-78178819D02*
X142269667Y-78131200D01*
X142269667Y-78131200D02*
X142222048Y-78083580D01*
X115020077Y-107336819D02*
X114543887Y-107336819D01*
X114543887Y-107336819D02*
X114543887Y-106336819D01*
X115353411Y-106813009D02*
X115686744Y-106813009D01*
X115829601Y-107336819D02*
X115353411Y-107336819D01*
X115353411Y-107336819D02*
X115353411Y-106336819D01*
X115353411Y-106336819D02*
X115829601Y-106336819D01*
X116258173Y-107336819D02*
X116258173Y-106336819D01*
X116258173Y-106336819D02*
X116496268Y-106336819D01*
X116496268Y-106336819D02*
X116639125Y-106384438D01*
X116639125Y-106384438D02*
X116734363Y-106479676D01*
X116734363Y-106479676D02*
X116781982Y-106574914D01*
X116781982Y-106574914D02*
X116829601Y-106765390D01*
X116829601Y-106765390D02*
X116829601Y-106908247D01*
X116829601Y-106908247D02*
X116781982Y-107098723D01*
X116781982Y-107098723D02*
X116734363Y-107193961D01*
X116734363Y-107193961D02*
X116639125Y-107289200D01*
X116639125Y-107289200D02*
X116496268Y-107336819D01*
X116496268Y-107336819D02*
X116258173Y-107336819D01*
X118543887Y-107336819D02*
X117972459Y-107336819D01*
X118258173Y-107336819D02*
X118258173Y-106336819D01*
X118258173Y-106336819D02*
X118162935Y-106479676D01*
X118162935Y-106479676D02*
X118067697Y-106574914D01*
X118067697Y-106574914D02*
X117972459Y-106622533D01*
X106934095Y-107531819D02*
X106934095Y-108341342D01*
X106934095Y-108341342D02*
X106981714Y-108436580D01*
X106981714Y-108436580D02*
X107029333Y-108484200D01*
X107029333Y-108484200D02*
X107124571Y-108531819D01*
X107124571Y-108531819D02*
X107315047Y-108531819D01*
X107315047Y-108531819D02*
X107410285Y-108484200D01*
X107410285Y-108484200D02*
X107457904Y-108436580D01*
X107457904Y-108436580D02*
X107505523Y-108341342D01*
X107505523Y-108341342D02*
X107505523Y-107531819D01*
X107886476Y-107531819D02*
X108553142Y-107531819D01*
X108553142Y-107531819D02*
X108124571Y-108531819D01*
X103400189Y-113230819D02*
X102923999Y-113230819D01*
X102923999Y-113230819D02*
X102923999Y-112230819D01*
X103733523Y-113230819D02*
X103733523Y-112564152D01*
X103733523Y-112230819D02*
X103685904Y-112278438D01*
X103685904Y-112278438D02*
X103733523Y-112326057D01*
X103733523Y-112326057D02*
X103781142Y-112278438D01*
X103781142Y-112278438D02*
X103733523Y-112230819D01*
X103733523Y-112230819D02*
X103733523Y-112326057D01*
X104638284Y-112564152D02*
X104638284Y-113373676D01*
X104638284Y-113373676D02*
X104590665Y-113468914D01*
X104590665Y-113468914D02*
X104543046Y-113516533D01*
X104543046Y-113516533D02*
X104447808Y-113564152D01*
X104447808Y-113564152D02*
X104304951Y-113564152D01*
X104304951Y-113564152D02*
X104209713Y-113516533D01*
X104638284Y-113183200D02*
X104543046Y-113230819D01*
X104543046Y-113230819D02*
X104352570Y-113230819D01*
X104352570Y-113230819D02*
X104257332Y-113183200D01*
X104257332Y-113183200D02*
X104209713Y-113135580D01*
X104209713Y-113135580D02*
X104162094Y-113040342D01*
X104162094Y-113040342D02*
X104162094Y-112754628D01*
X104162094Y-112754628D02*
X104209713Y-112659390D01*
X104209713Y-112659390D02*
X104257332Y-112611771D01*
X104257332Y-112611771D02*
X104352570Y-112564152D01*
X104352570Y-112564152D02*
X104543046Y-112564152D01*
X104543046Y-112564152D02*
X104638284Y-112611771D01*
X105114475Y-113230819D02*
X105114475Y-112230819D01*
X105543046Y-113230819D02*
X105543046Y-112707009D01*
X105543046Y-112707009D02*
X105495427Y-112611771D01*
X105495427Y-112611771D02*
X105400189Y-112564152D01*
X105400189Y-112564152D02*
X105257332Y-112564152D01*
X105257332Y-112564152D02*
X105162094Y-112611771D01*
X105162094Y-112611771D02*
X105114475Y-112659390D01*
X105876380Y-112564152D02*
X106257332Y-112564152D01*
X106019237Y-112230819D02*
X106019237Y-113087961D01*
X106019237Y-113087961D02*
X106066856Y-113183200D01*
X106066856Y-113183200D02*
X106162094Y-113230819D01*
X106162094Y-113230819D02*
X106257332Y-113230819D01*
X107304952Y-113183200D02*
X107447809Y-113230819D01*
X107447809Y-113230819D02*
X107685904Y-113230819D01*
X107685904Y-113230819D02*
X107781142Y-113183200D01*
X107781142Y-113183200D02*
X107828761Y-113135580D01*
X107828761Y-113135580D02*
X107876380Y-113040342D01*
X107876380Y-113040342D02*
X107876380Y-112945104D01*
X107876380Y-112945104D02*
X107828761Y-112849866D01*
X107828761Y-112849866D02*
X107781142Y-112802247D01*
X107781142Y-112802247D02*
X107685904Y-112754628D01*
X107685904Y-112754628D02*
X107495428Y-112707009D01*
X107495428Y-112707009D02*
X107400190Y-112659390D01*
X107400190Y-112659390D02*
X107352571Y-112611771D01*
X107352571Y-112611771D02*
X107304952Y-112516533D01*
X107304952Y-112516533D02*
X107304952Y-112421295D01*
X107304952Y-112421295D02*
X107352571Y-112326057D01*
X107352571Y-112326057D02*
X107400190Y-112278438D01*
X107400190Y-112278438D02*
X107495428Y-112230819D01*
X107495428Y-112230819D02*
X107733523Y-112230819D01*
X107733523Y-112230819D02*
X107876380Y-112278438D01*
X108685904Y-113183200D02*
X108590666Y-113230819D01*
X108590666Y-113230819D02*
X108400190Y-113230819D01*
X108400190Y-113230819D02*
X108304952Y-113183200D01*
X108304952Y-113183200D02*
X108257333Y-113087961D01*
X108257333Y-113087961D02*
X108257333Y-112707009D01*
X108257333Y-112707009D02*
X108304952Y-112611771D01*
X108304952Y-112611771D02*
X108400190Y-112564152D01*
X108400190Y-112564152D02*
X108590666Y-112564152D01*
X108590666Y-112564152D02*
X108685904Y-112611771D01*
X108685904Y-112611771D02*
X108733523Y-112707009D01*
X108733523Y-112707009D02*
X108733523Y-112802247D01*
X108733523Y-112802247D02*
X108257333Y-112897485D01*
X109162095Y-112564152D02*
X109162095Y-113230819D01*
X109162095Y-112659390D02*
X109209714Y-112611771D01*
X109209714Y-112611771D02*
X109304952Y-112564152D01*
X109304952Y-112564152D02*
X109447809Y-112564152D01*
X109447809Y-112564152D02*
X109543047Y-112611771D01*
X109543047Y-112611771D02*
X109590666Y-112707009D01*
X109590666Y-112707009D02*
X109590666Y-113230819D01*
X110019238Y-113183200D02*
X110114476Y-113230819D01*
X110114476Y-113230819D02*
X110304952Y-113230819D01*
X110304952Y-113230819D02*
X110400190Y-113183200D01*
X110400190Y-113183200D02*
X110447809Y-113087961D01*
X110447809Y-113087961D02*
X110447809Y-113040342D01*
X110447809Y-113040342D02*
X110400190Y-112945104D01*
X110400190Y-112945104D02*
X110304952Y-112897485D01*
X110304952Y-112897485D02*
X110162095Y-112897485D01*
X110162095Y-112897485D02*
X110066857Y-112849866D01*
X110066857Y-112849866D02*
X110019238Y-112754628D01*
X110019238Y-112754628D02*
X110019238Y-112707009D01*
X110019238Y-112707009D02*
X110066857Y-112611771D01*
X110066857Y-112611771D02*
X110162095Y-112564152D01*
X110162095Y-112564152D02*
X110304952Y-112564152D01*
X110304952Y-112564152D02*
X110400190Y-112611771D01*
X111019238Y-113230819D02*
X110924000Y-113183200D01*
X110924000Y-113183200D02*
X110876381Y-113135580D01*
X110876381Y-113135580D02*
X110828762Y-113040342D01*
X110828762Y-113040342D02*
X110828762Y-112754628D01*
X110828762Y-112754628D02*
X110876381Y-112659390D01*
X110876381Y-112659390D02*
X110924000Y-112611771D01*
X110924000Y-112611771D02*
X111019238Y-112564152D01*
X111019238Y-112564152D02*
X111162095Y-112564152D01*
X111162095Y-112564152D02*
X111257333Y-112611771D01*
X111257333Y-112611771D02*
X111304952Y-112659390D01*
X111304952Y-112659390D02*
X111352571Y-112754628D01*
X111352571Y-112754628D02*
X111352571Y-113040342D01*
X111352571Y-113040342D02*
X111304952Y-113135580D01*
X111304952Y-113135580D02*
X111257333Y-113183200D01*
X111257333Y-113183200D02*
X111162095Y-113230819D01*
X111162095Y-113230819D02*
X111019238Y-113230819D01*
X111781143Y-113230819D02*
X111781143Y-112564152D01*
X111781143Y-112754628D02*
X111828762Y-112659390D01*
X111828762Y-112659390D02*
X111876381Y-112611771D01*
X111876381Y-112611771D02*
X111971619Y-112564152D01*
X111971619Y-112564152D02*
X112066857Y-112564152D01*
X110069333Y-106531580D02*
X110021714Y-106579200D01*
X110021714Y-106579200D02*
X109878857Y-106626819D01*
X109878857Y-106626819D02*
X109783619Y-106626819D01*
X109783619Y-106626819D02*
X109640762Y-106579200D01*
X109640762Y-106579200D02*
X109545524Y-106483961D01*
X109545524Y-106483961D02*
X109497905Y-106388723D01*
X109497905Y-106388723D02*
X109450286Y-106198247D01*
X109450286Y-106198247D02*
X109450286Y-106055390D01*
X109450286Y-106055390D02*
X109497905Y-105864914D01*
X109497905Y-105864914D02*
X109545524Y-105769676D01*
X109545524Y-105769676D02*
X109640762Y-105674438D01*
X109640762Y-105674438D02*
X109783619Y-105626819D01*
X109783619Y-105626819D02*
X109878857Y-105626819D01*
X109878857Y-105626819D02*
X110021714Y-105674438D01*
X110021714Y-105674438D02*
X110069333Y-105722057D01*
X111021714Y-106626819D02*
X110450286Y-106626819D01*
X110736000Y-106626819D02*
X110736000Y-105626819D01*
X110736000Y-105626819D02*
X110640762Y-105769676D01*
X110640762Y-105769676D02*
X110545524Y-105864914D01*
X110545524Y-105864914D02*
X110450286Y-105912533D01*
X100800819Y-110942333D02*
X101515104Y-110942333D01*
X101515104Y-110942333D02*
X101657961Y-110989952D01*
X101657961Y-110989952D02*
X101753200Y-111085190D01*
X101753200Y-111085190D02*
X101800819Y-111228047D01*
X101800819Y-111228047D02*
X101800819Y-111323285D01*
X101800819Y-110466142D02*
X100800819Y-110466142D01*
X100800819Y-110466142D02*
X100800819Y-110085190D01*
X100800819Y-110085190D02*
X100848438Y-109989952D01*
X100848438Y-109989952D02*
X100896057Y-109942333D01*
X100896057Y-109942333D02*
X100991295Y-109894714D01*
X100991295Y-109894714D02*
X101134152Y-109894714D01*
X101134152Y-109894714D02*
X101229390Y-109942333D01*
X101229390Y-109942333D02*
X101277009Y-109989952D01*
X101277009Y-109989952D02*
X101324628Y-110085190D01*
X101324628Y-110085190D02*
X101324628Y-110466142D01*
X101800819Y-108942333D02*
X101800819Y-109513761D01*
X101800819Y-109228047D02*
X100800819Y-109228047D01*
X100800819Y-109228047D02*
X100943676Y-109323285D01*
X100943676Y-109323285D02*
X101038914Y-109418523D01*
X101038914Y-109418523D02*
X101086533Y-109513761D01*
X112037905Y-110690819D02*
X112037905Y-109690819D01*
X112037905Y-109690819D02*
X112276000Y-109690819D01*
X112276000Y-109690819D02*
X112418857Y-109738438D01*
X112418857Y-109738438D02*
X112514095Y-109833676D01*
X112514095Y-109833676D02*
X112561714Y-109928914D01*
X112561714Y-109928914D02*
X112609333Y-110119390D01*
X112609333Y-110119390D02*
X112609333Y-110262247D01*
X112609333Y-110262247D02*
X112561714Y-110452723D01*
X112561714Y-110452723D02*
X112514095Y-110547961D01*
X112514095Y-110547961D02*
X112418857Y-110643200D01*
X112418857Y-110643200D02*
X112276000Y-110690819D01*
X112276000Y-110690819D02*
X112037905Y-110690819D01*
X113561714Y-110690819D02*
X112990286Y-110690819D01*
X113276000Y-110690819D02*
X113276000Y-109690819D01*
X113276000Y-109690819D02*
X113180762Y-109833676D01*
X113180762Y-109833676D02*
X113085524Y-109928914D01*
X113085524Y-109928914D02*
X112990286Y-109976533D01*
X121308905Y-110690819D02*
X121308905Y-109690819D01*
X121308905Y-109690819D02*
X121547000Y-109690819D01*
X121547000Y-109690819D02*
X121689857Y-109738438D01*
X121689857Y-109738438D02*
X121785095Y-109833676D01*
X121785095Y-109833676D02*
X121832714Y-109928914D01*
X121832714Y-109928914D02*
X121880333Y-110119390D01*
X121880333Y-110119390D02*
X121880333Y-110262247D01*
X121880333Y-110262247D02*
X121832714Y-110452723D01*
X121832714Y-110452723D02*
X121785095Y-110547961D01*
X121785095Y-110547961D02*
X121689857Y-110643200D01*
X121689857Y-110643200D02*
X121547000Y-110690819D01*
X121547000Y-110690819D02*
X121308905Y-110690819D01*
X122261286Y-109786057D02*
X122308905Y-109738438D01*
X122308905Y-109738438D02*
X122404143Y-109690819D01*
X122404143Y-109690819D02*
X122642238Y-109690819D01*
X122642238Y-109690819D02*
X122737476Y-109738438D01*
X122737476Y-109738438D02*
X122785095Y-109786057D01*
X122785095Y-109786057D02*
X122832714Y-109881295D01*
X122832714Y-109881295D02*
X122832714Y-109976533D01*
X122832714Y-109976533D02*
X122785095Y-110119390D01*
X122785095Y-110119390D02*
X122213667Y-110690819D01*
X122213667Y-110690819D02*
X122832714Y-110690819D01*
X130833905Y-110690819D02*
X130833905Y-109690819D01*
X130833905Y-109690819D02*
X131072000Y-109690819D01*
X131072000Y-109690819D02*
X131214857Y-109738438D01*
X131214857Y-109738438D02*
X131310095Y-109833676D01*
X131310095Y-109833676D02*
X131357714Y-109928914D01*
X131357714Y-109928914D02*
X131405333Y-110119390D01*
X131405333Y-110119390D02*
X131405333Y-110262247D01*
X131405333Y-110262247D02*
X131357714Y-110452723D01*
X131357714Y-110452723D02*
X131310095Y-110547961D01*
X131310095Y-110547961D02*
X131214857Y-110643200D01*
X131214857Y-110643200D02*
X131072000Y-110690819D01*
X131072000Y-110690819D02*
X130833905Y-110690819D01*
X131738667Y-109690819D02*
X132357714Y-109690819D01*
X132357714Y-109690819D02*
X132024381Y-110071771D01*
X132024381Y-110071771D02*
X132167238Y-110071771D01*
X132167238Y-110071771D02*
X132262476Y-110119390D01*
X132262476Y-110119390D02*
X132310095Y-110167009D01*
X132310095Y-110167009D02*
X132357714Y-110262247D01*
X132357714Y-110262247D02*
X132357714Y-110500342D01*
X132357714Y-110500342D02*
X132310095Y-110595580D01*
X132310095Y-110595580D02*
X132262476Y-110643200D01*
X132262476Y-110643200D02*
X132167238Y-110690819D01*
X132167238Y-110690819D02*
X131881524Y-110690819D01*
X131881524Y-110690819D02*
X131786286Y-110643200D01*
X131786286Y-110643200D02*
X131738667Y-110595580D01*
X116292333Y-116182580D02*
X116244714Y-116230200D01*
X116244714Y-116230200D02*
X116101857Y-116277819D01*
X116101857Y-116277819D02*
X116006619Y-116277819D01*
X116006619Y-116277819D02*
X115863762Y-116230200D01*
X115863762Y-116230200D02*
X115768524Y-116134961D01*
X115768524Y-116134961D02*
X115720905Y-116039723D01*
X115720905Y-116039723D02*
X115673286Y-115849247D01*
X115673286Y-115849247D02*
X115673286Y-115706390D01*
X115673286Y-115706390D02*
X115720905Y-115515914D01*
X115720905Y-115515914D02*
X115768524Y-115420676D01*
X115768524Y-115420676D02*
X115863762Y-115325438D01*
X115863762Y-115325438D02*
X116006619Y-115277819D01*
X116006619Y-115277819D02*
X116101857Y-115277819D01*
X116101857Y-115277819D02*
X116244714Y-115325438D01*
X116244714Y-115325438D02*
X116292333Y-115373057D01*
X116673286Y-115373057D02*
X116720905Y-115325438D01*
X116720905Y-115325438D02*
X116816143Y-115277819D01*
X116816143Y-115277819D02*
X117054238Y-115277819D01*
X117054238Y-115277819D02*
X117149476Y-115325438D01*
X117149476Y-115325438D02*
X117197095Y-115373057D01*
X117197095Y-115373057D02*
X117244714Y-115468295D01*
X117244714Y-115468295D02*
X117244714Y-115563533D01*
X117244714Y-115563533D02*
X117197095Y-115706390D01*
X117197095Y-115706390D02*
X116625667Y-116277819D01*
X116625667Y-116277819D02*
X117244714Y-116277819D01*
X125436333Y-116182580D02*
X125388714Y-116230200D01*
X125388714Y-116230200D02*
X125245857Y-116277819D01*
X125245857Y-116277819D02*
X125150619Y-116277819D01*
X125150619Y-116277819D02*
X125007762Y-116230200D01*
X125007762Y-116230200D02*
X124912524Y-116134961D01*
X124912524Y-116134961D02*
X124864905Y-116039723D01*
X124864905Y-116039723D02*
X124817286Y-115849247D01*
X124817286Y-115849247D02*
X124817286Y-115706390D01*
X124817286Y-115706390D02*
X124864905Y-115515914D01*
X124864905Y-115515914D02*
X124912524Y-115420676D01*
X124912524Y-115420676D02*
X125007762Y-115325438D01*
X125007762Y-115325438D02*
X125150619Y-115277819D01*
X125150619Y-115277819D02*
X125245857Y-115277819D01*
X125245857Y-115277819D02*
X125388714Y-115325438D01*
X125388714Y-115325438D02*
X125436333Y-115373057D01*
X125769667Y-115277819D02*
X126388714Y-115277819D01*
X126388714Y-115277819D02*
X126055381Y-115658771D01*
X126055381Y-115658771D02*
X126198238Y-115658771D01*
X126198238Y-115658771D02*
X126293476Y-115706390D01*
X126293476Y-115706390D02*
X126341095Y-115754009D01*
X126341095Y-115754009D02*
X126388714Y-115849247D01*
X126388714Y-115849247D02*
X126388714Y-116087342D01*
X126388714Y-116087342D02*
X126341095Y-116182580D01*
X126341095Y-116182580D02*
X126293476Y-116230200D01*
X126293476Y-116230200D02*
X126198238Y-116277819D01*
X126198238Y-116277819D02*
X125912524Y-116277819D01*
X125912524Y-116277819D02*
X125817286Y-116230200D01*
X125817286Y-116230200D02*
X125769667Y-116182580D01*
X135088333Y-116182580D02*
X135040714Y-116230200D01*
X135040714Y-116230200D02*
X134897857Y-116277819D01*
X134897857Y-116277819D02*
X134802619Y-116277819D01*
X134802619Y-116277819D02*
X134659762Y-116230200D01*
X134659762Y-116230200D02*
X134564524Y-116134961D01*
X134564524Y-116134961D02*
X134516905Y-116039723D01*
X134516905Y-116039723D02*
X134469286Y-115849247D01*
X134469286Y-115849247D02*
X134469286Y-115706390D01*
X134469286Y-115706390D02*
X134516905Y-115515914D01*
X134516905Y-115515914D02*
X134564524Y-115420676D01*
X134564524Y-115420676D02*
X134659762Y-115325438D01*
X134659762Y-115325438D02*
X134802619Y-115277819D01*
X134802619Y-115277819D02*
X134897857Y-115277819D01*
X134897857Y-115277819D02*
X135040714Y-115325438D01*
X135040714Y-115325438D02*
X135088333Y-115373057D01*
X135945476Y-115611152D02*
X135945476Y-116277819D01*
X135707381Y-115230200D02*
X135469286Y-115944485D01*
X135469286Y-115944485D02*
X136088333Y-115944485D01*
X132143667Y-96902200D02*
X132286524Y-96949819D01*
X132286524Y-96949819D02*
X132524619Y-96949819D01*
X132524619Y-96949819D02*
X132619857Y-96902200D01*
X132619857Y-96902200D02*
X132667476Y-96854580D01*
X132667476Y-96854580D02*
X132715095Y-96759342D01*
X132715095Y-96759342D02*
X132715095Y-96664104D01*
X132715095Y-96664104D02*
X132667476Y-96568866D01*
X132667476Y-96568866D02*
X132619857Y-96521247D01*
X132619857Y-96521247D02*
X132524619Y-96473628D01*
X132524619Y-96473628D02*
X132334143Y-96426009D01*
X132334143Y-96426009D02*
X132238905Y-96378390D01*
X132238905Y-96378390D02*
X132191286Y-96330771D01*
X132191286Y-96330771D02*
X132143667Y-96235533D01*
X132143667Y-96235533D02*
X132143667Y-96140295D01*
X132143667Y-96140295D02*
X132191286Y-96045057D01*
X132191286Y-96045057D02*
X132238905Y-95997438D01*
X132238905Y-95997438D02*
X132334143Y-95949819D01*
X132334143Y-95949819D02*
X132572238Y-95949819D01*
X132572238Y-95949819D02*
X132715095Y-95997438D01*
X133048429Y-95949819D02*
X133286524Y-96949819D01*
X133286524Y-96949819D02*
X133477000Y-96235533D01*
X133477000Y-96235533D02*
X133667476Y-96949819D01*
X133667476Y-96949819D02*
X133905572Y-95949819D01*
X134810333Y-96949819D02*
X134238905Y-96949819D01*
X134524619Y-96949819D02*
X134524619Y-95949819D01*
X134524619Y-95949819D02*
X134429381Y-96092676D01*
X134429381Y-96092676D02*
X134334143Y-96187914D01*
X134334143Y-96187914D02*
X134238905Y-96235533D01*
X162145095Y-100292819D02*
X162145095Y-101102342D01*
X162145095Y-101102342D02*
X162192714Y-101197580D01*
X162192714Y-101197580D02*
X162240333Y-101245200D01*
X162240333Y-101245200D02*
X162335571Y-101292819D01*
X162335571Y-101292819D02*
X162526047Y-101292819D01*
X162526047Y-101292819D02*
X162621285Y-101245200D01*
X162621285Y-101245200D02*
X162668904Y-101197580D01*
X162668904Y-101197580D02*
X162716523Y-101102342D01*
X162716523Y-101102342D02*
X162716523Y-100292819D01*
X163097476Y-100292819D02*
X163716523Y-100292819D01*
X163716523Y-100292819D02*
X163383190Y-100673771D01*
X163383190Y-100673771D02*
X163526047Y-100673771D01*
X163526047Y-100673771D02*
X163621285Y-100721390D01*
X163621285Y-100721390D02*
X163668904Y-100769009D01*
X163668904Y-100769009D02*
X163716523Y-100864247D01*
X163716523Y-100864247D02*
X163716523Y-101102342D01*
X163716523Y-101102342D02*
X163668904Y-101197580D01*
X163668904Y-101197580D02*
X163621285Y-101245200D01*
X163621285Y-101245200D02*
X163526047Y-101292819D01*
X163526047Y-101292819D02*
X163240333Y-101292819D01*
X163240333Y-101292819D02*
X163145095Y-101245200D01*
X163145095Y-101245200D02*
X163097476Y-101197580D01*
X165316819Y-99948904D02*
X166126342Y-99948904D01*
X166126342Y-99948904D02*
X166221580Y-99901285D01*
X166221580Y-99901285D02*
X166269200Y-99853666D01*
X166269200Y-99853666D02*
X166316819Y-99758428D01*
X166316819Y-99758428D02*
X166316819Y-99567952D01*
X166316819Y-99567952D02*
X166269200Y-99472714D01*
X166269200Y-99472714D02*
X166221580Y-99425095D01*
X166221580Y-99425095D02*
X166126342Y-99377476D01*
X166126342Y-99377476D02*
X165316819Y-99377476D01*
X165650152Y-98472714D02*
X166316819Y-98472714D01*
X165269200Y-98710809D02*
X165983485Y-98948904D01*
X165983485Y-98948904D02*
X165983485Y-98329857D01*
X171196095Y-95895438D02*
X171100857Y-95847819D01*
X171100857Y-95847819D02*
X170958000Y-95847819D01*
X170958000Y-95847819D02*
X170815143Y-95895438D01*
X170815143Y-95895438D02*
X170719905Y-95990676D01*
X170719905Y-95990676D02*
X170672286Y-96085914D01*
X170672286Y-96085914D02*
X170624667Y-96276390D01*
X170624667Y-96276390D02*
X170624667Y-96419247D01*
X170624667Y-96419247D02*
X170672286Y-96609723D01*
X170672286Y-96609723D02*
X170719905Y-96704961D01*
X170719905Y-96704961D02*
X170815143Y-96800200D01*
X170815143Y-96800200D02*
X170958000Y-96847819D01*
X170958000Y-96847819D02*
X171053238Y-96847819D01*
X171053238Y-96847819D02*
X171196095Y-96800200D01*
X171196095Y-96800200D02*
X171243714Y-96752580D01*
X171243714Y-96752580D02*
X171243714Y-96419247D01*
X171243714Y-96419247D02*
X171053238Y-96419247D01*
X171672286Y-96847819D02*
X171672286Y-95847819D01*
X171672286Y-95847819D02*
X172243714Y-96847819D01*
X172243714Y-96847819D02*
X172243714Y-95847819D01*
X172719905Y-96847819D02*
X172719905Y-95847819D01*
X172719905Y-95847819D02*
X172958000Y-95847819D01*
X172958000Y-95847819D02*
X173100857Y-95895438D01*
X173100857Y-95895438D02*
X173196095Y-95990676D01*
X173196095Y-95990676D02*
X173243714Y-96085914D01*
X173243714Y-96085914D02*
X173291333Y-96276390D01*
X173291333Y-96276390D02*
X173291333Y-96419247D01*
X173291333Y-96419247D02*
X173243714Y-96609723D01*
X173243714Y-96609723D02*
X173196095Y-96704961D01*
X173196095Y-96704961D02*
X173100857Y-96800200D01*
X173100857Y-96800200D02*
X172958000Y-96847819D01*
X172958000Y-96847819D02*
X172719905Y-96847819D01*
X168437112Y-86799009D02*
X168579969Y-86846628D01*
X168579969Y-86846628D02*
X168627588Y-86894247D01*
X168627588Y-86894247D02*
X168675207Y-86989485D01*
X168675207Y-86989485D02*
X168675207Y-87132342D01*
X168675207Y-87132342D02*
X168627588Y-87227580D01*
X168627588Y-87227580D02*
X168579969Y-87275200D01*
X168579969Y-87275200D02*
X168484731Y-87322819D01*
X168484731Y-87322819D02*
X168103779Y-87322819D01*
X168103779Y-87322819D02*
X168103779Y-86322819D01*
X168103779Y-86322819D02*
X168437112Y-86322819D01*
X168437112Y-86322819D02*
X168532350Y-86370438D01*
X168532350Y-86370438D02*
X168579969Y-86418057D01*
X168579969Y-86418057D02*
X168627588Y-86513295D01*
X168627588Y-86513295D02*
X168627588Y-86608533D01*
X168627588Y-86608533D02*
X168579969Y-86703771D01*
X168579969Y-86703771D02*
X168532350Y-86751390D01*
X168532350Y-86751390D02*
X168437112Y-86799009D01*
X168437112Y-86799009D02*
X168103779Y-86799009D01*
X169103779Y-87322819D02*
X169103779Y-86322819D01*
X169103779Y-86322819D02*
X169437112Y-87037104D01*
X169437112Y-87037104D02*
X169770445Y-86322819D01*
X169770445Y-86322819D02*
X169770445Y-87322819D01*
X170246636Y-86799009D02*
X170579969Y-86799009D01*
X170722826Y-87322819D02*
X170246636Y-87322819D01*
X170246636Y-87322819D02*
X170246636Y-86322819D01*
X170246636Y-86322819D02*
X170722826Y-86322819D01*
X171103779Y-86418057D02*
X171151398Y-86370438D01*
X171151398Y-86370438D02*
X171246636Y-86322819D01*
X171246636Y-86322819D02*
X171484731Y-86322819D01*
X171484731Y-86322819D02*
X171579969Y-86370438D01*
X171579969Y-86370438D02*
X171627588Y-86418057D01*
X171627588Y-86418057D02*
X171675207Y-86513295D01*
X171675207Y-86513295D02*
X171675207Y-86608533D01*
X171675207Y-86608533D02*
X171627588Y-86751390D01*
X171627588Y-86751390D02*
X171056160Y-87322819D01*
X171056160Y-87322819D02*
X171675207Y-87322819D01*
X172246636Y-86751390D02*
X172151398Y-86703771D01*
X172151398Y-86703771D02*
X172103779Y-86656152D01*
X172103779Y-86656152D02*
X172056160Y-86560914D01*
X172056160Y-86560914D02*
X172056160Y-86513295D01*
X172056160Y-86513295D02*
X172103779Y-86418057D01*
X172103779Y-86418057D02*
X172151398Y-86370438D01*
X172151398Y-86370438D02*
X172246636Y-86322819D01*
X172246636Y-86322819D02*
X172437112Y-86322819D01*
X172437112Y-86322819D02*
X172532350Y-86370438D01*
X172532350Y-86370438D02*
X172579969Y-86418057D01*
X172579969Y-86418057D02*
X172627588Y-86513295D01*
X172627588Y-86513295D02*
X172627588Y-86560914D01*
X172627588Y-86560914D02*
X172579969Y-86656152D01*
X172579969Y-86656152D02*
X172532350Y-86703771D01*
X172532350Y-86703771D02*
X172437112Y-86751390D01*
X172437112Y-86751390D02*
X172246636Y-86751390D01*
X172246636Y-86751390D02*
X172151398Y-86799009D01*
X172151398Y-86799009D02*
X172103779Y-86846628D01*
X172103779Y-86846628D02*
X172056160Y-86941866D01*
X172056160Y-86941866D02*
X172056160Y-87132342D01*
X172056160Y-87132342D02*
X172103779Y-87227580D01*
X172103779Y-87227580D02*
X172151398Y-87275200D01*
X172151398Y-87275200D02*
X172246636Y-87322819D01*
X172246636Y-87322819D02*
X172437112Y-87322819D01*
X172437112Y-87322819D02*
X172532350Y-87275200D01*
X172532350Y-87275200D02*
X172579969Y-87227580D01*
X172579969Y-87227580D02*
X172627588Y-87132342D01*
X172627588Y-87132342D02*
X172627588Y-86941866D01*
X172627588Y-86941866D02*
X172579969Y-86846628D01*
X172579969Y-86846628D02*
X172532350Y-86799009D01*
X172532350Y-86799009D02*
X172437112Y-86751390D01*
X173246636Y-86322819D02*
X173341874Y-86322819D01*
X173341874Y-86322819D02*
X173437112Y-86370438D01*
X173437112Y-86370438D02*
X173484731Y-86418057D01*
X173484731Y-86418057D02*
X173532350Y-86513295D01*
X173532350Y-86513295D02*
X173579969Y-86703771D01*
X173579969Y-86703771D02*
X173579969Y-86941866D01*
X173579969Y-86941866D02*
X173532350Y-87132342D01*
X173532350Y-87132342D02*
X173484731Y-87227580D01*
X173484731Y-87227580D02*
X173437112Y-87275200D01*
X173437112Y-87275200D02*
X173341874Y-87322819D01*
X173341874Y-87322819D02*
X173246636Y-87322819D01*
X173246636Y-87322819D02*
X173151398Y-87275200D01*
X173151398Y-87275200D02*
X173103779Y-87227580D01*
X173103779Y-87227580D02*
X173056160Y-87132342D01*
X173056160Y-87132342D02*
X173008541Y-86941866D01*
X173008541Y-86941866D02*
X173008541Y-86703771D01*
X173008541Y-86703771D02*
X173056160Y-86513295D01*
X173056160Y-86513295D02*
X173103779Y-86418057D01*
X173103779Y-86418057D02*
X173151398Y-86370438D01*
X173151398Y-86370438D02*
X173246636Y-86322819D01*
X170767524Y-98387819D02*
X171100857Y-99387819D01*
X171100857Y-99387819D02*
X171434190Y-98387819D01*
X172196095Y-99340200D02*
X172100857Y-99387819D01*
X172100857Y-99387819D02*
X171910381Y-99387819D01*
X171910381Y-99387819D02*
X171815143Y-99340200D01*
X171815143Y-99340200D02*
X171767524Y-99292580D01*
X171767524Y-99292580D02*
X171719905Y-99197342D01*
X171719905Y-99197342D02*
X171719905Y-98911628D01*
X171719905Y-98911628D02*
X171767524Y-98816390D01*
X171767524Y-98816390D02*
X171815143Y-98768771D01*
X171815143Y-98768771D02*
X171910381Y-98721152D01*
X171910381Y-98721152D02*
X172100857Y-98721152D01*
X172100857Y-98721152D02*
X172196095Y-98768771D01*
X173053238Y-99340200D02*
X172958000Y-99387819D01*
X172958000Y-99387819D02*
X172767524Y-99387819D01*
X172767524Y-99387819D02*
X172672286Y-99340200D01*
X172672286Y-99340200D02*
X172624667Y-99292580D01*
X172624667Y-99292580D02*
X172577048Y-99197342D01*
X172577048Y-99197342D02*
X172577048Y-98911628D01*
X172577048Y-98911628D02*
X172624667Y-98816390D01*
X172624667Y-98816390D02*
X172672286Y-98768771D01*
X172672286Y-98768771D02*
X172767524Y-98721152D01*
X172767524Y-98721152D02*
X172958000Y-98721152D01*
X172958000Y-98721152D02*
X173053238Y-98768771D01*
X170767524Y-94260200D02*
X170910381Y-94307819D01*
X170910381Y-94307819D02*
X171148476Y-94307819D01*
X171148476Y-94307819D02*
X171243714Y-94260200D01*
X171243714Y-94260200D02*
X171291333Y-94212580D01*
X171291333Y-94212580D02*
X171338952Y-94117342D01*
X171338952Y-94117342D02*
X171338952Y-94022104D01*
X171338952Y-94022104D02*
X171291333Y-93926866D01*
X171291333Y-93926866D02*
X171243714Y-93879247D01*
X171243714Y-93879247D02*
X171148476Y-93831628D01*
X171148476Y-93831628D02*
X170958000Y-93784009D01*
X170958000Y-93784009D02*
X170862762Y-93736390D01*
X170862762Y-93736390D02*
X170815143Y-93688771D01*
X170815143Y-93688771D02*
X170767524Y-93593533D01*
X170767524Y-93593533D02*
X170767524Y-93498295D01*
X170767524Y-93498295D02*
X170815143Y-93403057D01*
X170815143Y-93403057D02*
X170862762Y-93355438D01*
X170862762Y-93355438D02*
X170958000Y-93307819D01*
X170958000Y-93307819D02*
X171196095Y-93307819D01*
X171196095Y-93307819D02*
X171338952Y-93355438D01*
X172338952Y-94212580D02*
X172291333Y-94260200D01*
X172291333Y-94260200D02*
X172148476Y-94307819D01*
X172148476Y-94307819D02*
X172053238Y-94307819D01*
X172053238Y-94307819D02*
X171910381Y-94260200D01*
X171910381Y-94260200D02*
X171815143Y-94164961D01*
X171815143Y-94164961D02*
X171767524Y-94069723D01*
X171767524Y-94069723D02*
X171719905Y-93879247D01*
X171719905Y-93879247D02*
X171719905Y-93736390D01*
X171719905Y-93736390D02*
X171767524Y-93545914D01*
X171767524Y-93545914D02*
X171815143Y-93450676D01*
X171815143Y-93450676D02*
X171910381Y-93355438D01*
X171910381Y-93355438D02*
X172053238Y-93307819D01*
X172053238Y-93307819D02*
X172148476Y-93307819D01*
X172148476Y-93307819D02*
X172291333Y-93355438D01*
X172291333Y-93355438D02*
X172338952Y-93403057D01*
X173243714Y-94307819D02*
X172767524Y-94307819D01*
X172767524Y-94307819D02*
X172767524Y-93307819D01*
X170743714Y-91720200D02*
X170886571Y-91767819D01*
X170886571Y-91767819D02*
X171124666Y-91767819D01*
X171124666Y-91767819D02*
X171219904Y-91720200D01*
X171219904Y-91720200D02*
X171267523Y-91672580D01*
X171267523Y-91672580D02*
X171315142Y-91577342D01*
X171315142Y-91577342D02*
X171315142Y-91482104D01*
X171315142Y-91482104D02*
X171267523Y-91386866D01*
X171267523Y-91386866D02*
X171219904Y-91339247D01*
X171219904Y-91339247D02*
X171124666Y-91291628D01*
X171124666Y-91291628D02*
X170934190Y-91244009D01*
X170934190Y-91244009D02*
X170838952Y-91196390D01*
X170838952Y-91196390D02*
X170791333Y-91148771D01*
X170791333Y-91148771D02*
X170743714Y-91053533D01*
X170743714Y-91053533D02*
X170743714Y-90958295D01*
X170743714Y-90958295D02*
X170791333Y-90863057D01*
X170791333Y-90863057D02*
X170838952Y-90815438D01*
X170838952Y-90815438D02*
X170934190Y-90767819D01*
X170934190Y-90767819D02*
X171172285Y-90767819D01*
X171172285Y-90767819D02*
X171315142Y-90815438D01*
X171743714Y-91767819D02*
X171743714Y-90767819D01*
X171743714Y-90767819D02*
X171981809Y-90767819D01*
X171981809Y-90767819D02*
X172124666Y-90815438D01*
X172124666Y-90815438D02*
X172219904Y-90910676D01*
X172219904Y-90910676D02*
X172267523Y-91005914D01*
X172267523Y-91005914D02*
X172315142Y-91196390D01*
X172315142Y-91196390D02*
X172315142Y-91339247D01*
X172315142Y-91339247D02*
X172267523Y-91529723D01*
X172267523Y-91529723D02*
X172219904Y-91624961D01*
X172219904Y-91624961D02*
X172124666Y-91720200D01*
X172124666Y-91720200D02*
X171981809Y-91767819D01*
X171981809Y-91767819D02*
X171743714Y-91767819D01*
X172696095Y-91482104D02*
X173172285Y-91482104D01*
X172600857Y-91767819D02*
X172934190Y-90767819D01*
X172934190Y-90767819D02*
X173267523Y-91767819D01*
X146393819Y-92373220D02*
X147203342Y-92373220D01*
X147203342Y-92373220D02*
X147298580Y-92325601D01*
X147298580Y-92325601D02*
X147346200Y-92277982D01*
X147346200Y-92277982D02*
X147393819Y-92182744D01*
X147393819Y-92182744D02*
X147393819Y-91992268D01*
X147393819Y-91992268D02*
X147346200Y-91897030D01*
X147346200Y-91897030D02*
X147298580Y-91849411D01*
X147298580Y-91849411D02*
X147203342Y-91801792D01*
X147203342Y-91801792D02*
X146393819Y-91801792D01*
X146393819Y-90897030D02*
X146393819Y-91087506D01*
X146393819Y-91087506D02*
X146441438Y-91182744D01*
X146441438Y-91182744D02*
X146489057Y-91230363D01*
X146489057Y-91230363D02*
X146631914Y-91325601D01*
X146631914Y-91325601D02*
X146822390Y-91373220D01*
X146822390Y-91373220D02*
X147203342Y-91373220D01*
X147203342Y-91373220D02*
X147298580Y-91325601D01*
X147298580Y-91325601D02*
X147346200Y-91277982D01*
X147346200Y-91277982D02*
X147393819Y-91182744D01*
X147393819Y-91182744D02*
X147393819Y-90992268D01*
X147393819Y-90992268D02*
X147346200Y-90897030D01*
X147346200Y-90897030D02*
X147298580Y-90849411D01*
X147298580Y-90849411D02*
X147203342Y-90801792D01*
X147203342Y-90801792D02*
X146965247Y-90801792D01*
X146965247Y-90801792D02*
X146870009Y-90849411D01*
X146870009Y-90849411D02*
X146822390Y-90897030D01*
X146822390Y-90897030D02*
X146774771Y-90992268D01*
X146774771Y-90992268D02*
X146774771Y-91182744D01*
X146774771Y-91182744D02*
X146822390Y-91277982D01*
X146822390Y-91277982D02*
X146870009Y-91325601D01*
X146870009Y-91325601D02*
X146965247Y-91373220D01*
X151971524Y-91593200D02*
X152114381Y-91640819D01*
X152114381Y-91640819D02*
X152352476Y-91640819D01*
X152352476Y-91640819D02*
X152447714Y-91593200D01*
X152447714Y-91593200D02*
X152495333Y-91545580D01*
X152495333Y-91545580D02*
X152542952Y-91450342D01*
X152542952Y-91450342D02*
X152542952Y-91355104D01*
X152542952Y-91355104D02*
X152495333Y-91259866D01*
X152495333Y-91259866D02*
X152447714Y-91212247D01*
X152447714Y-91212247D02*
X152352476Y-91164628D01*
X152352476Y-91164628D02*
X152162000Y-91117009D01*
X152162000Y-91117009D02*
X152066762Y-91069390D01*
X152066762Y-91069390D02*
X152019143Y-91021771D01*
X152019143Y-91021771D02*
X151971524Y-90926533D01*
X151971524Y-90926533D02*
X151971524Y-90831295D01*
X151971524Y-90831295D02*
X152019143Y-90736057D01*
X152019143Y-90736057D02*
X152066762Y-90688438D01*
X152066762Y-90688438D02*
X152162000Y-90640819D01*
X152162000Y-90640819D02*
X152400095Y-90640819D01*
X152400095Y-90640819D02*
X152542952Y-90688438D01*
X153542952Y-91545580D02*
X153495333Y-91593200D01*
X153495333Y-91593200D02*
X153352476Y-91640819D01*
X153352476Y-91640819D02*
X153257238Y-91640819D01*
X153257238Y-91640819D02*
X153114381Y-91593200D01*
X153114381Y-91593200D02*
X153019143Y-91497961D01*
X153019143Y-91497961D02*
X152971524Y-91402723D01*
X152971524Y-91402723D02*
X152923905Y-91212247D01*
X152923905Y-91212247D02*
X152923905Y-91069390D01*
X152923905Y-91069390D02*
X152971524Y-90878914D01*
X152971524Y-90878914D02*
X153019143Y-90783676D01*
X153019143Y-90783676D02*
X153114381Y-90688438D01*
X153114381Y-90688438D02*
X153257238Y-90640819D01*
X153257238Y-90640819D02*
X153352476Y-90640819D01*
X153352476Y-90640819D02*
X153495333Y-90688438D01*
X153495333Y-90688438D02*
X153542952Y-90736057D01*
X154447714Y-91640819D02*
X153971524Y-91640819D01*
X153971524Y-91640819D02*
X153971524Y-90640819D01*
X151812810Y-95593819D02*
X152431857Y-95593819D01*
X152431857Y-95593819D02*
X152098524Y-95974771D01*
X152098524Y-95974771D02*
X152241381Y-95974771D01*
X152241381Y-95974771D02*
X152336619Y-96022390D01*
X152336619Y-96022390D02*
X152384238Y-96070009D01*
X152384238Y-96070009D02*
X152431857Y-96165247D01*
X152431857Y-96165247D02*
X152431857Y-96403342D01*
X152431857Y-96403342D02*
X152384238Y-96498580D01*
X152384238Y-96498580D02*
X152336619Y-96546200D01*
X152336619Y-96546200D02*
X152241381Y-96593819D01*
X152241381Y-96593819D02*
X151955667Y-96593819D01*
X151955667Y-96593819D02*
X151860429Y-96546200D01*
X151860429Y-96546200D02*
X151812810Y-96498580D01*
X152860429Y-96498580D02*
X152908048Y-96546200D01*
X152908048Y-96546200D02*
X152860429Y-96593819D01*
X152860429Y-96593819D02*
X152812810Y-96546200D01*
X152812810Y-96546200D02*
X152860429Y-96498580D01*
X152860429Y-96498580D02*
X152860429Y-96593819D01*
X153241381Y-95593819D02*
X153860428Y-95593819D01*
X153860428Y-95593819D02*
X153527095Y-95974771D01*
X153527095Y-95974771D02*
X153669952Y-95974771D01*
X153669952Y-95974771D02*
X153765190Y-96022390D01*
X153765190Y-96022390D02*
X153812809Y-96070009D01*
X153812809Y-96070009D02*
X153860428Y-96165247D01*
X153860428Y-96165247D02*
X153860428Y-96403342D01*
X153860428Y-96403342D02*
X153812809Y-96498580D01*
X153812809Y-96498580D02*
X153765190Y-96546200D01*
X153765190Y-96546200D02*
X153669952Y-96593819D01*
X153669952Y-96593819D02*
X153384238Y-96593819D01*
X153384238Y-96593819D02*
X153289000Y-96546200D01*
X153289000Y-96546200D02*
X153241381Y-96498580D01*
X154146143Y-95593819D02*
X154479476Y-96593819D01*
X154479476Y-96593819D02*
X154812809Y-95593819D01*
X151947714Y-89053200D02*
X152090571Y-89100819D01*
X152090571Y-89100819D02*
X152328666Y-89100819D01*
X152328666Y-89100819D02*
X152423904Y-89053200D01*
X152423904Y-89053200D02*
X152471523Y-89005580D01*
X152471523Y-89005580D02*
X152519142Y-88910342D01*
X152519142Y-88910342D02*
X152519142Y-88815104D01*
X152519142Y-88815104D02*
X152471523Y-88719866D01*
X152471523Y-88719866D02*
X152423904Y-88672247D01*
X152423904Y-88672247D02*
X152328666Y-88624628D01*
X152328666Y-88624628D02*
X152138190Y-88577009D01*
X152138190Y-88577009D02*
X152042952Y-88529390D01*
X152042952Y-88529390D02*
X151995333Y-88481771D01*
X151995333Y-88481771D02*
X151947714Y-88386533D01*
X151947714Y-88386533D02*
X151947714Y-88291295D01*
X151947714Y-88291295D02*
X151995333Y-88196057D01*
X151995333Y-88196057D02*
X152042952Y-88148438D01*
X152042952Y-88148438D02*
X152138190Y-88100819D01*
X152138190Y-88100819D02*
X152376285Y-88100819D01*
X152376285Y-88100819D02*
X152519142Y-88148438D01*
X152947714Y-89100819D02*
X152947714Y-88100819D01*
X152947714Y-88100819D02*
X153185809Y-88100819D01*
X153185809Y-88100819D02*
X153328666Y-88148438D01*
X153328666Y-88148438D02*
X153423904Y-88243676D01*
X153423904Y-88243676D02*
X153471523Y-88338914D01*
X153471523Y-88338914D02*
X153519142Y-88529390D01*
X153519142Y-88529390D02*
X153519142Y-88672247D01*
X153519142Y-88672247D02*
X153471523Y-88862723D01*
X153471523Y-88862723D02*
X153423904Y-88957961D01*
X153423904Y-88957961D02*
X153328666Y-89053200D01*
X153328666Y-89053200D02*
X153185809Y-89100819D01*
X153185809Y-89100819D02*
X152947714Y-89100819D01*
X153900095Y-88815104D02*
X154376285Y-88815104D01*
X153804857Y-89100819D02*
X154138190Y-88100819D01*
X154138190Y-88100819D02*
X154471523Y-89100819D01*
X148743200Y-94960839D02*
X148790819Y-94817982D01*
X148790819Y-94817982D02*
X148790819Y-94579887D01*
X148790819Y-94579887D02*
X148743200Y-94484649D01*
X148743200Y-94484649D02*
X148695580Y-94437030D01*
X148695580Y-94437030D02*
X148600342Y-94389411D01*
X148600342Y-94389411D02*
X148505104Y-94389411D01*
X148505104Y-94389411D02*
X148409866Y-94437030D01*
X148409866Y-94437030D02*
X148362247Y-94484649D01*
X148362247Y-94484649D02*
X148314628Y-94579887D01*
X148314628Y-94579887D02*
X148267009Y-94770363D01*
X148267009Y-94770363D02*
X148219390Y-94865601D01*
X148219390Y-94865601D02*
X148171771Y-94913220D01*
X148171771Y-94913220D02*
X148076533Y-94960839D01*
X148076533Y-94960839D02*
X147981295Y-94960839D01*
X147981295Y-94960839D02*
X147886057Y-94913220D01*
X147886057Y-94913220D02*
X147838438Y-94865601D01*
X147838438Y-94865601D02*
X147790819Y-94770363D01*
X147790819Y-94770363D02*
X147790819Y-94532268D01*
X147790819Y-94532268D02*
X147838438Y-94389411D01*
X147838438Y-93437030D02*
X147790819Y-93532268D01*
X147790819Y-93532268D02*
X147790819Y-93675125D01*
X147790819Y-93675125D02*
X147838438Y-93817982D01*
X147838438Y-93817982D02*
X147933676Y-93913220D01*
X147933676Y-93913220D02*
X148028914Y-93960839D01*
X148028914Y-93960839D02*
X148219390Y-94008458D01*
X148219390Y-94008458D02*
X148362247Y-94008458D01*
X148362247Y-94008458D02*
X148552723Y-93960839D01*
X148552723Y-93960839D02*
X148647961Y-93913220D01*
X148647961Y-93913220D02*
X148743200Y-93817982D01*
X148743200Y-93817982D02*
X148790819Y-93675125D01*
X148790819Y-93675125D02*
X148790819Y-93579887D01*
X148790819Y-93579887D02*
X148743200Y-93437030D01*
X148743200Y-93437030D02*
X148695580Y-93389411D01*
X148695580Y-93389411D02*
X148362247Y-93389411D01*
X148362247Y-93389411D02*
X148362247Y-93579887D01*
X148790819Y-92960839D02*
X147790819Y-92960839D01*
X147790819Y-92960839D02*
X147790819Y-92579887D01*
X147790819Y-92579887D02*
X147838438Y-92484649D01*
X147838438Y-92484649D02*
X147886057Y-92437030D01*
X147886057Y-92437030D02*
X147981295Y-92389411D01*
X147981295Y-92389411D02*
X148124152Y-92389411D01*
X148124152Y-92389411D02*
X148219390Y-92437030D01*
X148219390Y-92437030D02*
X148267009Y-92484649D01*
X148267009Y-92484649D02*
X148314628Y-92579887D01*
X148314628Y-92579887D02*
X148314628Y-92960839D01*
X147790819Y-92056077D02*
X147790819Y-91437030D01*
X147790819Y-91437030D02*
X148171771Y-91770363D01*
X148171771Y-91770363D02*
X148171771Y-91627506D01*
X148171771Y-91627506D02*
X148219390Y-91532268D01*
X148219390Y-91532268D02*
X148267009Y-91484649D01*
X148267009Y-91484649D02*
X148362247Y-91437030D01*
X148362247Y-91437030D02*
X148600342Y-91437030D01*
X148600342Y-91437030D02*
X148695580Y-91484649D01*
X148695580Y-91484649D02*
X148743200Y-91532268D01*
X148743200Y-91532268D02*
X148790819Y-91627506D01*
X148790819Y-91627506D02*
X148790819Y-91913220D01*
X148790819Y-91913220D02*
X148743200Y-92008458D01*
X148743200Y-92008458D02*
X148695580Y-92056077D01*
X147790819Y-90817982D02*
X147790819Y-90722744D01*
X147790819Y-90722744D02*
X147838438Y-90627506D01*
X147838438Y-90627506D02*
X147886057Y-90579887D01*
X147886057Y-90579887D02*
X147981295Y-90532268D01*
X147981295Y-90532268D02*
X148171771Y-90484649D01*
X148171771Y-90484649D02*
X148409866Y-90484649D01*
X148409866Y-90484649D02*
X148600342Y-90532268D01*
X148600342Y-90532268D02*
X148695580Y-90579887D01*
X148695580Y-90579887D02*
X148743200Y-90627506D01*
X148743200Y-90627506D02*
X148790819Y-90722744D01*
X148790819Y-90722744D02*
X148790819Y-90817982D01*
X148790819Y-90817982D02*
X148743200Y-90913220D01*
X148743200Y-90913220D02*
X148695580Y-90960839D01*
X148695580Y-90960839D02*
X148600342Y-91008458D01*
X148600342Y-91008458D02*
X148409866Y-91056077D01*
X148409866Y-91056077D02*
X148171771Y-91056077D01*
X148171771Y-91056077D02*
X147981295Y-91008458D01*
X147981295Y-91008458D02*
X147886057Y-90960839D01*
X147886057Y-90960839D02*
X147838438Y-90913220D01*
X147838438Y-90913220D02*
X147790819Y-90817982D01*
X152400095Y-93228438D02*
X152304857Y-93180819D01*
X152304857Y-93180819D02*
X152162000Y-93180819D01*
X152162000Y-93180819D02*
X152019143Y-93228438D01*
X152019143Y-93228438D02*
X151923905Y-93323676D01*
X151923905Y-93323676D02*
X151876286Y-93418914D01*
X151876286Y-93418914D02*
X151828667Y-93609390D01*
X151828667Y-93609390D02*
X151828667Y-93752247D01*
X151828667Y-93752247D02*
X151876286Y-93942723D01*
X151876286Y-93942723D02*
X151923905Y-94037961D01*
X151923905Y-94037961D02*
X152019143Y-94133200D01*
X152019143Y-94133200D02*
X152162000Y-94180819D01*
X152162000Y-94180819D02*
X152257238Y-94180819D01*
X152257238Y-94180819D02*
X152400095Y-94133200D01*
X152400095Y-94133200D02*
X152447714Y-94085580D01*
X152447714Y-94085580D02*
X152447714Y-93752247D01*
X152447714Y-93752247D02*
X152257238Y-93752247D01*
X152876286Y-94180819D02*
X152876286Y-93180819D01*
X152876286Y-93180819D02*
X153447714Y-94180819D01*
X153447714Y-94180819D02*
X153447714Y-93180819D01*
X153923905Y-94180819D02*
X153923905Y-93180819D01*
X153923905Y-93180819D02*
X154162000Y-93180819D01*
X154162000Y-93180819D02*
X154304857Y-93228438D01*
X154304857Y-93228438D02*
X154400095Y-93323676D01*
X154400095Y-93323676D02*
X154447714Y-93418914D01*
X154447714Y-93418914D02*
X154495333Y-93609390D01*
X154495333Y-93609390D02*
X154495333Y-93752247D01*
X154495333Y-93752247D02*
X154447714Y-93942723D01*
X154447714Y-93942723D02*
X154400095Y-94037961D01*
X154400095Y-94037961D02*
X154304857Y-94133200D01*
X154304857Y-94133200D02*
X154162000Y-94180819D01*
X154162000Y-94180819D02*
X153923905Y-94180819D01*
X173291667Y-105944200D02*
X173434524Y-105991819D01*
X173434524Y-105991819D02*
X173672619Y-105991819D01*
X173672619Y-105991819D02*
X173767857Y-105944200D01*
X173767857Y-105944200D02*
X173815476Y-105896580D01*
X173815476Y-105896580D02*
X173863095Y-105801342D01*
X173863095Y-105801342D02*
X173863095Y-105706104D01*
X173863095Y-105706104D02*
X173815476Y-105610866D01*
X173815476Y-105610866D02*
X173767857Y-105563247D01*
X173767857Y-105563247D02*
X173672619Y-105515628D01*
X173672619Y-105515628D02*
X173482143Y-105468009D01*
X173482143Y-105468009D02*
X173386905Y-105420390D01*
X173386905Y-105420390D02*
X173339286Y-105372771D01*
X173339286Y-105372771D02*
X173291667Y-105277533D01*
X173291667Y-105277533D02*
X173291667Y-105182295D01*
X173291667Y-105182295D02*
X173339286Y-105087057D01*
X173339286Y-105087057D02*
X173386905Y-105039438D01*
X173386905Y-105039438D02*
X173482143Y-104991819D01*
X173482143Y-104991819D02*
X173720238Y-104991819D01*
X173720238Y-104991819D02*
X173863095Y-105039438D01*
X174196429Y-104991819D02*
X174434524Y-105991819D01*
X174434524Y-105991819D02*
X174625000Y-105277533D01*
X174625000Y-105277533D02*
X174815476Y-105991819D01*
X174815476Y-105991819D02*
X175053572Y-104991819D01*
X175386905Y-105087057D02*
X175434524Y-105039438D01*
X175434524Y-105039438D02*
X175529762Y-104991819D01*
X175529762Y-104991819D02*
X175767857Y-104991819D01*
X175767857Y-104991819D02*
X175863095Y-105039438D01*
X175863095Y-105039438D02*
X175910714Y-105087057D01*
X175910714Y-105087057D02*
X175958333Y-105182295D01*
X175958333Y-105182295D02*
X175958333Y-105277533D01*
X175958333Y-105277533D02*
X175910714Y-105420390D01*
X175910714Y-105420390D02*
X175339286Y-105991819D01*
X175339286Y-105991819D02*
X175958333Y-105991819D01*
D11*
X112952419Y-93842904D02*
X113761942Y-93842904D01*
X113761942Y-93842904D02*
X113857180Y-93795285D01*
X113857180Y-93795285D02*
X113904800Y-93747666D01*
X113904800Y-93747666D02*
X113952419Y-93652428D01*
X113952419Y-93652428D02*
X113952419Y-93461952D01*
X113952419Y-93461952D02*
X113904800Y-93366714D01*
X113904800Y-93366714D02*
X113857180Y-93319095D01*
X113857180Y-93319095D02*
X113761942Y-93271476D01*
X113761942Y-93271476D02*
X112952419Y-93271476D01*
X113380990Y-92652428D02*
X113333371Y-92747666D01*
X113333371Y-92747666D02*
X113285752Y-92795285D01*
X113285752Y-92795285D02*
X113190514Y-92842904D01*
X113190514Y-92842904D02*
X113142895Y-92842904D01*
X113142895Y-92842904D02*
X113047657Y-92795285D01*
X113047657Y-92795285D02*
X113000038Y-92747666D01*
X113000038Y-92747666D02*
X112952419Y-92652428D01*
X112952419Y-92652428D02*
X112952419Y-92461952D01*
X112952419Y-92461952D02*
X113000038Y-92366714D01*
X113000038Y-92366714D02*
X113047657Y-92319095D01*
X113047657Y-92319095D02*
X113142895Y-92271476D01*
X113142895Y-92271476D02*
X113190514Y-92271476D01*
X113190514Y-92271476D02*
X113285752Y-92319095D01*
X113285752Y-92319095D02*
X113333371Y-92366714D01*
X113333371Y-92366714D02*
X113380990Y-92461952D01*
X113380990Y-92461952D02*
X113380990Y-92652428D01*
X113380990Y-92652428D02*
X113428609Y-92747666D01*
X113428609Y-92747666D02*
X113476228Y-92795285D01*
X113476228Y-92795285D02*
X113571466Y-92842904D01*
X113571466Y-92842904D02*
X113761942Y-92842904D01*
X113761942Y-92842904D02*
X113857180Y-92795285D01*
X113857180Y-92795285D02*
X113904800Y-92747666D01*
X113904800Y-92747666D02*
X113952419Y-92652428D01*
X113952419Y-92652428D02*
X113952419Y-92461952D01*
X113952419Y-92461952D02*
X113904800Y-92366714D01*
X113904800Y-92366714D02*
X113857180Y-92319095D01*
X113857180Y-92319095D02*
X113761942Y-92271476D01*
X113761942Y-92271476D02*
X113571466Y-92271476D01*
X113571466Y-92271476D02*
X113476228Y-92319095D01*
X113476228Y-92319095D02*
X113428609Y-92366714D01*
X113428609Y-92366714D02*
X113380990Y-92461952D01*
D12*
X105650000Y-108850000D02*
X109450000Y-108850000D01*
X109450000Y-111850000D02*
X105650000Y-111850000D01*
D13*
X104953500Y-109400000D02*
G75*
G03*
X104846500Y-109400000I-53500J0D01*
G01*
X104846500Y-109400000D02*
G75*
G03*
X104953500Y-109400000I53500J0D01*
G01*
D12*
X107307748Y-105437000D02*
X107830252Y-105437000D01*
X107307748Y-106907000D02*
X107830252Y-106907000D01*
X102951000Y-107454000D02*
X103551000Y-107454000D01*
X101751000Y-108004000D02*
X101751000Y-108604000D01*
X104251000Y-108104000D02*
X104251000Y-110904000D01*
X102051000Y-108304000D02*
X101751000Y-108004000D01*
X102051000Y-108304000D02*
X101751000Y-108604000D01*
X102251000Y-110904000D02*
X102251000Y-108104000D01*
X103551000Y-111554000D02*
X102951000Y-111554000D01*
X104251000Y-108154000D02*
G75*
G03*
X103551000Y-107454000I-699999J1D01*
G01*
X102951000Y-107454000D02*
G75*
G03*
X102251000Y-108154000I-1J-699999D01*
G01*
X103551000Y-111554000D02*
G75*
G03*
X104251000Y-110854000I0J700000D01*
G01*
X102251000Y-110854000D02*
G75*
G03*
X102951000Y-111554000I700000J0D01*
G01*
X113720000Y-107616000D02*
X118840000Y-107616000D01*
X113720000Y-107936000D02*
X113720000Y-107616000D01*
X113840000Y-112856000D02*
X118840000Y-112856000D01*
X123110000Y-107616000D02*
X128230000Y-107616000D01*
X123110000Y-107936000D02*
X123110000Y-107616000D01*
X123230000Y-112856000D02*
X128230000Y-112856000D01*
X132608000Y-107616000D02*
X137728000Y-107616000D01*
X132608000Y-107936000D02*
X132608000Y-107616000D01*
X132728000Y-112856000D02*
X137728000Y-112856000D01*
X116720252Y-114908000D02*
X116197748Y-114908000D01*
X116720252Y-113438000D02*
X116197748Y-113438000D01*
X125864252Y-114908000D02*
X125341748Y-114908000D01*
X125864252Y-113438000D02*
X125341748Y-113438000D01*
X135516252Y-114908000D02*
X134993748Y-114908000D01*
X135516252Y-113438000D02*
X134993748Y-113438000D01*
X131107000Y-97325000D02*
X131107000Y-97725000D01*
X131107000Y-97325000D02*
X135847000Y-97325000D01*
X131107000Y-100725000D02*
X131107000Y-98665000D01*
X131107000Y-102065000D02*
X131107000Y-101665000D01*
X131107000Y-102065000D02*
X135847000Y-102065000D01*
X135847000Y-97325000D02*
X135847000Y-97725000D01*
X135847000Y-100725000D02*
X135847000Y-98665000D01*
X135847000Y-102065000D02*
X135847000Y-101665000D01*
X176630000Y-76370000D02*
X176630000Y-80570000D01*
X172430000Y-104570000D02*
X176630000Y-104570000D01*
X172430000Y-76370000D02*
X176630000Y-76370000D01*
X153130000Y-104570000D02*
X148930000Y-104570000D01*
X148930000Y-104570000D02*
X148930000Y-100370000D01*
X148930000Y-80570000D02*
X148930000Y-76370000D01*
X148930000Y-76370000D02*
X153130000Y-76370000D01*
X176530000Y-100457000D02*
X164846000Y-100457000D01*
X176530000Y-84709000D02*
X176530000Y-100457000D01*
X164846000Y-100457000D02*
X164846000Y-84709000D01*
X164846000Y-84709000D02*
X176530000Y-84709000D01*
X162560000Y-87376000D02*
X162560000Y-97790000D01*
X149098000Y-97790000D02*
X162560000Y-97790000D01*
X149098000Y-97790000D02*
X149098000Y-87376000D01*
X149098000Y-87376000D02*
X162560000Y-87376000D01*
X173969000Y-107765000D02*
X171969000Y-107765000D01*
X175269000Y-108815000D02*
X175719000Y-109265000D01*
X170669000Y-108815000D02*
X170219000Y-109265000D01*
X175719000Y-109265000D02*
X175719000Y-111765000D01*
X170219000Y-109265000D02*
X170219000Y-111765000D01*
X175269000Y-112215000D02*
X175719000Y-111765000D01*
X170669000Y-112215000D02*
X170219000Y-111765000D01*
X173969000Y-113265000D02*
X171969000Y-113265000D01*
D11*
X101473000Y-102235000D02*
X102743000Y-102235000D01*
X101473000Y-102235000D02*
X101473000Y-84235000D01*
X123063000Y-102235000D02*
X123993000Y-102235000D01*
X123993000Y-102235000D02*
X123993000Y-84235000D01*
X101473000Y-84235000D02*
X102743000Y-84235000D01*
X123063000Y-84235000D02*
X123993000Y-84235000D01*
X102743000Y-95885000D02*
X100203000Y-95885000D01*
X100203000Y-95885000D02*
X100203000Y-90805000D01*
X100203000Y-90805000D02*
X102743000Y-90805000D01*
X102743000Y-90805000D02*
X102743000Y-95885000D01*
M02*
